<?xml version="1.0" encoding="utf-8"?>
<!-- Generator: Adobe Illustrator 24.2.3, SVG Export Plug-In . SVG Version: 6.00 Build 0)  -->
<svg version="1.1" id="Layer_1" xmlns="http://www.w3.org/2000/svg" xmlns:xlink="http://www.w3.org/1999/xlink" x="0px" y="0px"
	 viewBox="0 0 400 400" style="enable-background:new 0 0 400 400;" xml:space="preserve">
<style type="text/css">
	.st0{fill:#FFFFFF;}
</style>
<path class="st0" d="M80.9,358.5c36.4,0,66-30.6,66-68.4c0-37.7-29.5-68.3-66-68.3c-36.3,0-65.9,30.6-65.9,68.3
	C15,327.9,44.6,358.5,80.9,358.5z M0,290.1c0-46.3,36.3-83.7,80.9-83.7c44.7,0,81,37.5,81,83.7c0,46.3-36.3,83.8-81,83.8
	C36.3,373.9,0,336.5,0,290.1z"/>
<path class="st0" d="M319.1,359.3c36.3,0,65.9-30.5,65.9-68.3c0-37.7-29.5-68.3-65.9-68.3c-36.4,0-66,30.6-66,68.3
	C253.1,328.8,282.7,359.3,319.1,359.3z M238.1,291c0-46.3,36.3-83.7,81-83.7c44.6,0,80.9,37.4,80.9,83.7s-36.3,83.8-80.9,83.8
	C274.4,374.8,238.1,337.3,238.1,291z"/>
<path class="st0" d="M238.4,86.6c16.8,0,30.4-14,30.4-31.4s-13.7-31.5-30.4-31.5s-30.5,14.2-30.5,31.5S221.6,86.6,238.4,86.6z"/>
<path class="st0" d="M239.6,163c-4.4,0.1-9.2-2.2-12.7-7.9l-19.7-32l-40.8,41.8l37.8,20.6c15.6,7.7,13.2,21.9,13.2,21.9V296
	c0,10-7.8,18.2-17.5,18.2c-9.7,0-17.5-8.2-17.5-18.2v-71l-65.6-37.7c-7.8-4.5-13.1-13.2-13.1-23c0-6.8,2.4-13,6.6-17.7L174.6,80
	c8-9.3,19.1-7.9,19.1-7.9c13.5,0,20.6,12.2,20.6,12.2l33.4,54.2l50.7-0.1c18.3,0,18.3,24.6,0,24.6H239.6z"/>
</svg>
