<?xml version="1.0" encoding="utf-8"?>
<!-- Generator: Adobe Illustrator 24.2.3, SVG Export Plug-In . SVG Version: 6.00 Build 0)  -->
<svg version="1.1" id="Layer_1" xmlns="http://www.w3.org/2000/svg" xmlns:xlink="http://www.w3.org/1999/xlink" x="0px" y="0px"
	 viewBox="0 0 400 400" style="enable-background:new 0 0 400 400;" xml:space="preserve">
<style type="text/css">
	.st0{fill:#FFFFFF;}
</style>
<path class="st0" d="M50.7,174.1c-1.8,3.4-3,7.1-3.7,11c-0.3,2-0.5,4-0.5,6l1.6,91l-33.8,67.8c-1.2,2-2.1,4.3-2.4,6.8
	c-1.9,11.2,6.4,21.6,18.4,23.3c9.3,1.3,18.3-3.1,22.5-10.4l37.2-74.1c0.8-1.7,1.5-3.5,1.8-5.5c0.1-0.9,0.2-1.9,0.2-2.8l-0.3-56.3
	l57.2,23.2l9.2,55c1.9,8,9,14.5,18.2,15.8c12,1.6,23.2-6,25-17.1c0.3-1.9,0.3-3.8,0.1-5.6l-11.3-66.4c-1.4-6.4-5.9-11.9-12.3-14.7
	l-51.1-21.1l32.5-52.7l16.1,19.1c1.6,1.7,3.8,3.2,6.2,4l61.5,16.7c8.1,1.6,16.5-2.3,19.7-9.7c3.6-8.3-0.7-17.7-9.5-21l-0.9-0.3
	L199,141.5l-40.2-44.9c-6-6-14.1-10.2-23.4-11.6c-16.3-2.3-31.8,5-40,17.3L50.7,174.1L50.7,174.1z"/>
<path class="st0" d="M227.2,305.7l-3.9,27.3l-105.8,23.9l1,16.9h258c9.1,0,16.5-6.9,16.5-15.4L392.7,35l-35.3-7.7l-20.3,85
	l-33.9,13.3L273,204.1l28.6,60l-8,23C293.5,287.1,227.2,305.7,227.2,305.7z"/>
<path class="st0" d="M155.3,81c18.2,0,32.9-13.7,32.9-30.6c0-16.9-14.7-30.6-32.9-30.6c-18.2,0-32.9,13.7-32.9,30.6
	C122.3,67.3,137.1,81,155.3,81z"/>
<path class="st0" d="M89.8,85.8c2.5-4.1,1.1-9.6-3.5-11.9l-15.9-8.7c-4.6-2.3-10.3-1-12.9,3.2L8.3,147.3c-2.5,4.2-1.1,9.5,3.5,11.9
	l16,8.6c4.5,2.4,10.2,1,12.8-3.2L89.8,85.8z"/>
</svg>
