<?xml version="1.0" encoding="utf-8"?>
<!-- Generator: Adobe Illustrator 24.2.3, SVG Export Plug-In . SVG Version: 6.00 Build 0)  -->
<svg version="1.1" id="Layer_1" xmlns="http://www.w3.org/2000/svg" xmlns:xlink="http://www.w3.org/1999/xlink" x="0px" y="0px"
	 viewBox="0 0 400 400" style="enable-background:new 0 0 400 400;" xml:space="preserve">
<g>
	<path d="M333.4,246.1c-8.2,0-16,1.9-22.9,5.1c-6.9,3-14.4,4.8-22.3,4.8s-15.5-1.8-22.3-4.8c-6.9-3.2-14.7-5.1-22.9-5.1
		c-8.1,0-15.9,1.9-22.9,5.1c-6.8,3-14.3,4.8-22.2,4.8s-15.6-1.8-22.3-4.8c-6.9-3.2-14.7-5.1-22.9-5.1s-16,1.9-22.9,5.1
		c-6.8,3-14.4,4.8-22.2,4.8c-7.9,0-15.5-1.8-22.3-4.8c-6.9-3.2-14.6-5.1-22.8-5.1s-16,1.9-22.9,5.1c-6.8,3-14.4,4.8-22.3,4.8v33.3
		c7.9,0,15.5-1.8,22.3-4.7c6.9-3.3,14.7-5.2,22.9-5.2s15.9,1.9,22.8,5.2c5.8,2.5,12.1,4,18.7,4.4l-27.7,27.6
		c-8.8-5.5-20.5-4.5-28.1,3.1l-31.8,31.8c-8.8,8.8-8.8,23.1,0,32c8.9,8.8,23.2,8.8,32,0l31.7-31.7c7.2-7.2,8.5-18,4-26.5l38.1-38.1
		c2.6-0.8,5.1-1.4,7.5-2.5c6.9-3.3,14.7-5.2,22.9-5.2s16,1.9,22.9,5.2c6.8,2.9,14.4,4.7,22.3,4.7c7.9,0,15.4-1.8,22.2-4.7
		c7-3.3,14.8-5.2,22.9-5.2c8.2,0,16,1.9,22.9,5.2c6.8,2.9,14.4,4.7,22.3,4.7s15.5-1.8,22.3-4.7c6.9-3.3,14.7-5.2,22.9-5.2
		c8.2,0,15.9,1.9,22.9,5.2c6.7,2.9,14.4,4.7,22.3,4.7V256c-7.9,0-15.6-1.8-22.3-4.8C349.3,248,341.6,246.1,333.4,246.1"/>
	<path d="M201.2,191.6h-9.7l19.4-64.7l40.1,14.8L201.2,191.6L201.2,191.6z M348.8,83l31.7-31.8c8.9-8.9,8.9-23.1,0-32
		c-8.8-8.9-23.2-8.9-32,0L316.8,51c-7.7,7.6-8.7,19.3-3.1,28l-39.5,39.5l-78.4-29c-2.1-1.2-4.2-2.2-6.7-2.9
		c-17.1-5.1-35.2,4.6-40.3,21.7L124.9,189c-0.3,0.9-0.4,1.7-0.5,2.5H17.3v43.3c5.8,0,11.9-1.4,17.2-3.7c8.7-4,18.4-6.2,27.9-6.2
		s19.1,2.2,27.7,6.1c5.7,2.5,11.5,3.8,17.4,3.8c6,0,11.8-1.3,17.2-3.7c8.8-4,18.4-6.2,27.9-6.2c9.6,0,19.1,2.1,27.8,6.1
		c5.5,2.5,11.5,3.8,17.4,3.8s11.7-1.3,17.3-3.7c8.7-4,18.4-6.2,27.8-6.2c9.7,0,19.1,2.1,27.8,6.1c5.6,2.5,11.5,3.8,17.4,3.8
		s11.9-1.3,17.3-3.7c8.7-4,18.5-6.2,28-6.2c1.6,0,8.2,0.5,14.7-3.8c11.5-5.1,15.8-7.9,25.9-14.1c8.2-5.1,15.1-16.1-2.9-15.6
		c-5,0.2-153.5,0-153.5,0l45.5-45.4l6.1,2.3c7.7,2.8,16.4-1.2,19.2-8.9c2-5.5,0.5-11.4-3.3-15.4l37.3-37.3
		C330.8,91.4,341.6,90.2,348.8,83"/>
	<path d="M200.9,47.1l-4.1,8.8c-2.7,5.5-8.3,9.2-14.6,9.2h-9.7c5.6,7.9,14.7,13,25.1,13c16.9,0,30.6-13.6,30.6-30.6V46h-25.8
		C201.7,46,201.1,46.5,200.9,47.1"/>
	<path d="M182.1,57.4c3.3,0,6.3-2,7.6-4.8l4-8.8c1.5-3.3,4.7-5.6,8.5-5.6H234C229.9,21.9,215,10,197.5,10
		c-20.8,0-37.6,16.8-37.6,37.6c0,3.4,0.4,6.7,1.3,9.8L182.1,57.4L182.1,57.4z"/>
</g>
</svg>
