<?xml version="1.0" encoding="utf-8"?>
<!-- Generator: Adobe Illustrator 24.2.3, SVG Export Plug-In . SVG Version: 6.00 Build 0)  -->
<svg version="1.1" id="Layer_1" xmlns="http://www.w3.org/2000/svg" xmlns:xlink="http://www.w3.org/1999/xlink" x="0px" y="0px"
	 viewBox="0 0 400 400" style="enable-background:new 0 0 400 400;" xml:space="preserve">
<style type="text/css">
	.st0{fill-rule:evenodd;clip-rule:evenodd;fill:#151515;}
</style>
<path class="st0" d="M4.2,25.2C4.2,11.3,15.6,0,29.6,0h44.3c10,0,19.7,3.4,27.4,9.7l13.5,10.9l0.3,0.3c0.3-0.1,0.6-0.2,0.9-0.3
	c24.3-7.7,53.8-9.2,83.9-9.2s59.6,1.5,83.9,9.2c0.3,0.1,0.6,0.2,0.9,0.3l0.3-0.3l13.5-10.9c7.7-6.3,17.4-9.7,27.4-9.7h44.3
	c14,0,25.4,11.3,25.4,25.2v15.6c0,12-5.1,23.5-14.1,31.6l-10.9,9.8c-5.3,4.8-11.7,8.3-18.6,10.2l-2.6,0.7
	c10.1,23.8,15.6,49.2,15.6,69.8c0,82.7-51.7,118.4-97.3,149.9c-35.9,24.8-68,46.9-68,87.3c0-40.4-32.1-62.5-68-87.3
	c-45.6-31.5-97.3-67.2-97.3-149.9c0-20.6,5.6-46,15.6-69.8l-2.6-0.7c-6.9-1.9-13.3-5.4-18.6-10.2l-10.9-9.8
	c-9-8.1-14.1-19.6-14.1-31.6V25.2z M233.1,230.4c0,4-1.7,7.7-4.8,10.5c-3.1,2.8-7.3,4.4-11.7,4.4c-3.8,0-7.4-1.2-10.4-3.3
	c5,13.2,17.7,25.6,37.1,5.6c17.1-18.6-0.8-58-18.2-81.3c-5.8-7.8-15.3-11.5-25.1-11.5c-9.8,0-19.3,3.7-25.1,11.5
	c-17.4,23.3-35.2,62.7-18.2,81.3c19.4,20.1,32.1,7.6,37.1-5.6c-2.9,2.1-6.6,3.3-10.4,3.3c-4.4,0-8.6-1.6-11.7-4.4
	c-3.1-2.8-4.8-6.6-4.8-10.5H233.1z M136.7,114H90.6l36.3,28.7c8,6.3,19.7,4.3,24.6-4.3C157.8,127.6,149.5,114,136.7,114z M263.3,114
	h46.1l-36.3,28.7c-8,6.3-19.7,4.3-24.6-4.3C242.2,127.6,250.5,114,263.3,114z"/>
</svg>
