<?xml version="1.0" encoding="utf-8"?>
<!-- Generator: Adobe Illustrator 24.2.3, SVG Export Plug-In . SVG Version: 6.00 Build 0)  -->
<svg version="1.1" id="logo-75" xmlns="http://www.w3.org/2000/svg" xmlns:xlink="http://www.w3.org/1999/xlink" x="0px" y="0px"
	 viewBox="0 0 186 41" style="enable-background:new 0 0 186 41;" xml:space="preserve">
<style type="text/css">
	.st0{fill:#FFFFFF;}
	.st1{font-family:'Roboto-Black';}
	.st2{font-size:35.7574px;}
	.st3{fill-rule:evenodd;clip-rule:evenodd;fill:#F7F7F7;}
</style>
<text transform="matrix(1 0 0 1 95.0603 34.0932)" class="st0 st1 st2">Trails</text>
<text transform="matrix(1 0 0 1 1.525879e-05 34.0933)" class="st0 st1 st2">Wild</text>
<path class="st3" d="M66.4,3c0-1.4,1.1-2.5,2.5-2.5h4.5c1,0,2,0.3,2.7,1l1.3,1.1l0,0h0.1c2.4-0.8,5.4-0.9,8.4-0.9s6,0.1,8.4,0.9h0.1
	l0,0l1.3-1.1c0.8-0.6,1.7-1,2.7-1h4.4c1.4,0,2.5,1.1,2.5,2.5v1.6c0,1.2-0.5,2.4-1.4,3.2l-1.1,1c-0.5,0.5-1.2,0.8-1.9,1l-0.3,0.1
	c1,2.4,1.6,4.9,1.6,7c0,8.3-5.2,11.8-9.7,15c-3.6,2.5-6.8,4.7-6.8,8.7c0-4-3.2-6.3-6.8-8.7c-4.6-3.1-9.7-6.7-9.7-15
	c0-2.1,0.6-4.6,1.6-7l-0.3-0.1c-0.7-0.2-1.3-0.5-1.9-1l-1.1-1c-0.9-0.8-1.4-2-1.4-3.2V3H66.4z M89.3,23.5c0,0.4-0.2,0.8-0.5,1.1
	c-0.3,0.3-0.7,0.4-1.2,0.4c-0.4,0-0.7-0.1-1-0.3c0.5,1.3,1.8,2.6,3.7,0.6c1.7-1.9-0.1-5.8-1.8-8.1C87.9,16.4,87,16,86,16
	s-1.9,0.4-2.5,1.2c-1.7,2.3-3.5,6.3-1.8,8.1c1.9,2,3.2,0.8,3.7-0.6c-0.3,0.2-0.7,0.3-1,0.3c-0.4,0-0.9-0.2-1.2-0.4
	c-0.3-0.3-0.5-0.7-0.5-1.1H89.3z M79.7,11.9h-4.6l3.6,2.9c0.8,0.6,2,0.4,2.5-0.4C81.8,13.3,81,11.9,79.7,11.9z M92.4,11.9H97
	l-3.6,2.9c-0.8,0.6-2,0.4-2.5-0.4C90.2,13.3,91.1,11.9,92.4,11.9z"/>
</svg>
