<?xml version="1.0" encoding="utf-8"?>
<!-- Generator: Adobe Illustrator 24.2.3, SVG Export Plug-In . SVG Version: 6.00 Build 0)  -->
<svg version="1.1" id="Layer_1" xmlns="http://www.w3.org/2000/svg" xmlns:xlink="http://www.w3.org/1999/xlink" x="0px" y="0px"
	 viewBox="0 0 400 400" style="enable-background:new 0 0 400 400;" xml:space="preserve">
<style type="text/css">
	.st0{fill-rule:evenodd;clip-rule:evenodd;fill:#E7E7E7;}
</style>
<path class="st0" d="M7.5,24.9C7.5,11,18.5,0,32.4,0h44.9c10,0,20,3,26.9,10l13,11l0,0h1c23.9-8,53.9-9,83.8-9s59.9,1,83.8,9h1l0,0
	l13-11c8-6,17-10,26.9-10h43.9c14,0,24.9,11,24.9,24.9v16c0,12-5,23.9-14,31.9l-11,10c-5,5-12,8-19,10l-3,1c10,23.9,16,48.9,16,69.8
	c0,82.8-51.9,117.7-96.8,149.6C231.9,338.2,200,360.1,200,400c0-39.9-31.9-62.8-67.8-86.8c-45.9-30.9-96.8-66.8-96.8-149.6
	c0-20.9,6-45.9,16-69.8l-3-1c-7-2-13-5-19-10l-11-10c-9-8-14-20-14-31.9v-16H7.5z M235.9,229.4c0,4-2,8-5,11c-3,3-7,4-12,4
	c-4,0-7-1-10-3c5,13,18,25.9,36.9,6c17-19-1-57.9-18-80.8c-6-8-15-12-24.9-12c-10,0-19,4-24.9,12c-17,22.9-34.9,62.8-18,80.8
	c19,20,31.9,8,36.9-6c-3,2-7,3-10,3c-4,0-9-2-12-4c-3-3-5-7-5-11H235.9z M140.1,113.7H94.3l35.9,28.9c8,6,20,4,24.9-4
	C161.1,127.7,153.1,113.7,140.1,113.7z M266.8,113.7h45.9l-35.9,28.9c-8,6-20,4-24.9-4C244.9,127.7,253.9,113.7,266.8,113.7z"/>
</svg>
