<?xml version="1.0" encoding="utf-8"?>
<!-- Generator: Adobe Illustrator 24.2.3, SVG Export Plug-In . SVG Version: 6.00 Build 0)  -->
<svg version="1.1" id="Layer_1" xmlns="http://www.w3.org/2000/svg" xmlns:xlink="http://www.w3.org/1999/xlink" x="0px" y="0px"
	 viewBox="0 0 468 468" style="enable-background:new 0 0 468 468;" xml:space="preserve">
<style type="text/css">
	.st0{fill:none;stroke:#000000;stroke-width:1.4566;stroke-miterlimit:3.4375;}
	.st1{fill:#2E3436;}
	.st2{fill:none;stroke:#D3D7CF;stroke-width:0.7362;stroke-linecap:round;stroke-linejoin:round;stroke-miterlimit:3.4375;}
	.st3{fill:#D3D7CF;stroke:#D3D7CF;stroke-width:0.7362;stroke-miterlimit:3.4375;}
	.st4{fill:#AFC6C5;stroke:#AFC6C5;stroke-width:1.0518;stroke-miterlimit:3.4375;}
	.st5{opacity:0.9;enable-background:new    ;}
	.st6{fill:#BABDB6;}
	.st7{fill:#AD6060;stroke:#A40000;stroke-width:1.4725;stroke-linecap:round;stroke-linejoin:round;stroke-miterlimit:3.4375;}
	.st8{fill:#5D7FA5;stroke:#204A87;stroke-width:1.4725;stroke-linecap:round;stroke-linejoin:round;stroke-miterlimit:3.4375;}
	.st9{fill:url(#SVGID_1_);}
	.st10{fill:url(#SVGID_2_);}
	.st11{fill:#F2F2F2;stroke:url(#SVGID_3_);stroke-width:1.0518;stroke-miterlimit:3.4375;}
	.st12{fill:#F2F2F2;stroke:url(#SVGID_4_);stroke-width:1.0518;stroke-miterlimit:3.4375;}
	.st13{fill:url(#SVGID_5_);}
	.st14{fill:url(#SVGID_6_);}
	.st15{fill:url(#SVGID_7_);}
	.st16{fill:url(#SVGID_8_);}
</style>
<g transform="matrix(.85938 0 0 .85938 -148.15 -150.01)">
	<path class="st0" d="M713.1,447.3c0,147.9-119.9,267.8-267.8,267.8S177.6,595.2,177.6,447.3s119.9-267.8,267.8-267.8
		S713.1,299.4,713.1,447.3z"/>
	<g transform="translate(87.955 -267.32)">
		<path d="M356.5,448v10h1.8v-10H356.5z"/>
		<path d="M358.2,981.2v-10h-1.8v10H358.2z"/>
	</g>
	<path d="M398.2,184.9l1.7,9.8l1.7-0.3l-1.7-9.8L398.2,184.9z"/>
	<path d="M492.5,709.7l-1.7-9.8l-1.7,0.3l1.7,9.8L492.5,709.7z"/>
	<path d="M353.3,197.1l3.4,9.4l1.6-0.6l-3.4-9.4L353.3,197.1z"/>
	<path d="M537.3,697.5l-3.4-9.4l-1.6,0.6l3.4,9.4L537.3,697.5z"/>
	<path d="M311.3,216.9l5,8.7l1.5-0.9l-5-8.7L311.3,216.9z"/>
	<path d="M579.4,677.7l-5-8.7l-1.5,0.9l5,8.7L579.4,677.7L579.4,677.7z"/>
	<path d="M273.3,243.6l6.4,7.7l1.3-1.1l-6.4-7.7L273.3,243.6z"/>
	<path d="M617.3,651l-6.4-7.7l-1.3,1.1l6.4,7.7L617.3,651L617.3,651z"/>
	<path d="M240.5,276.6l7.7,6.4l1.1-1.3l-7.7-6.4L240.5,276.6z"/>
	<path d="M650.1,618l-7.7-6.4l-1.1,1.3l7.7,6.4L650.1,618z"/>
	<path d="M214,314.8l8.7,5l0.9-1.5l-8.7-5L214,314.8z"/>
	<path d="M676.6,579.8l-8.7-5l-0.9,1.5l8.7,5L676.6,579.8z"/>
	<path d="M194.5,356.9l9.4,3.4l0.6-1.6l-9.4-3.4L194.5,356.9z"/>
	<path d="M696.1,537.6l-9.4-3.4l-0.6,1.6l9.4,3.4L696.1,537.6z"/>
	<path d="M182.6,401.9l9.8,1.7l0.3-1.7l-9.8-1.7L182.6,401.9L182.6,401.9z"/>
	<path d="M708,492.7l-9.8-1.7l-0.3,1.7l9.8,1.7L708,492.7z"/>
	<path d="M178.7,448.2h10v-1.8h-10V448.2z"/>
	<path d="M711.9,446.4h-10v1.8h10V446.4z"/>
	<path d="M182.9,494.4l9.8-1.7l-0.3-1.7l-9.8,1.7L182.9,494.4z"/>
	<path d="M707.7,400.1l-9.8,1.7l0.3,1.7l9.8-1.7L707.7,400.1z"/>
	<path d="M195.1,539.3l9.4-3.4l-0.6-1.6l-9.4,3.4L195.1,539.3z"/>
	<path d="M695.5,355.3l-9.4,3.4l0.6,1.6l9.4-3.4L695.5,355.3L695.5,355.3z"/>
	<path d="M214.9,581.3l8.7-5l-0.9-1.5l-8.7,5L214.9,581.3z"/>
	<path d="M675.8,313.2l-8.7,5l0.9,1.5l8.7-5L675.8,313.2z"/>
	<path d="M241.7,619.3l7.7-6.4l-1.1-1.3l-7.7,6.4L241.7,619.3z"/>
	<path d="M649,275.3l-7.7,6.4l1.1,1.3l7.7-6.4L649,275.3z"/>
	<path d="M274.6,652.1l6.4-7.7l-1.3-1.1l-6.4,7.7L274.6,652.1z"/>
	<path d="M616,242.5l-6.4,7.7l1.3,1.1l6.4-7.7L616,242.5z"/>
	<path d="M312.8,678.6l5-8.7l-1.5-0.9l-5,8.7L312.8,678.6z"/>
	<path d="M577.9,216l-5,8.7l1.5,0.9l5-8.7L577.9,216z"/>
	<path d="M355,698.1l3.4-9.4l-1.6-0.6l-3.4,9.4L355,698.1z"/>
	<path d="M535.7,196.5l-3.4,9.4l1.6,0.6l3.4-9.4L535.7,196.5L535.7,196.5z"/>
	<path d="M399.9,710l1.7-9.8l-1.7-0.3l-1.7,9.8L399.9,710z"/>
	<g>
		<g transform="translate(152.11 103.7)">
			<path class="st1" d="M288.9,97.3c0-0.9,0.1-1.8,0.2-2.5s0.4-1.3,0.6-1.7c0.2-0.4,0.5-0.8,0.9-1c0.3-0.3,0.7-0.4,1-0.5
				c0.3-0.1,0.7-0.1,1-0.1c2.5,0,3.7,2,3.7,6c0,1.9-0.3,3.3-1,4.3c-0.6,1-1.5,1.5-2.8,1.5c-1.2,0-2.1-0.5-2.8-1.5
				C289.2,100.7,288.9,99.2,288.9,97.3 M294.9,97.3c0-3.1-0.8-4.6-2.3-4.6c-1.5,0-2.3,1.5-2.3,4.6c0,3.1,0.7,4.7,2.2,4.7
				c0.8,0,1.4-0.4,1.7-1.2C294.7,100.1,294.9,98.9,294.9,97.3"/>
		</g>
		<g transform="matrix(-1 0 0 -1 767.89 722.3)">
			<path class="st1" d="M312.8,26.1h-2.5v-1c1.1-0.1,1.8-0.3,2.1-0.6s0.6-0.8,0.9-1.7h0.9v11.3h-1.4L312.8,26.1"/>
			<path class="st1" d="M323.9,28.3c1.3,0.6,2,1.6,2,2.8c0,1-0.4,1.9-1.1,2.5c-0.7,0.7-1.6,1-2.7,1c-1.1,0-2-0.3-2.8-1
				c-0.7-0.7-1.1-1.5-1.1-2.5c0-1.3,0.6-2.2,1.9-2.8c-0.6-0.4-1-0.7-1.2-1.1c-0.2-0.3-0.3-0.8-0.3-1.3c0-0.9,0.3-1.6,0.9-2.2
				c0.6-0.6,1.5-0.8,2.5-0.8c1,0,1.8,0.3,2.4,0.8c0.6,0.6,1,1.3,1,2.2c0,0.5-0.1,1-0.3,1.3C324.8,27.6,324.4,27.9,323.9,28.3
				 M323.4,24.6c-0.4-0.3-0.8-0.5-1.4-0.5c-0.6,0-1.1,0.2-1.4,0.5c-0.4,0.3-0.5,0.8-0.5,1.3c0,0.5,0.2,1,0.5,1.3
				c0.4,0.3,0.8,0.5,1.4,0.5c0.6,0,1.1-0.2,1.4-0.5c0.4-0.3,0.5-0.7,0.5-1.3C324,25.4,323.8,24.9,323.4,24.6 M323.7,29.5
				c-0.4-0.4-1-0.6-1.7-0.6c-0.7,0-1.3,0.2-1.7,0.6c-0.4,0.4-0.7,0.9-0.7,1.6s0.2,1.2,0.6,1.6c0.4,0.4,1,0.6,1.7,0.6
				c0.7,0,1.3-0.2,1.7-0.6c0.4-0.4,0.7-1,0.7-1.6C324.4,30.4,324.1,29.9,323.7,29.5"/>
			<path class="st1" d="M327.2,28.7c0-0.9,0.1-1.8,0.2-2.5c0.2-0.7,0.4-1.3,0.6-1.7c0.2-0.4,0.5-0.8,0.9-1c0.3-0.3,0.7-0.4,1-0.5
				c0.3-0.1,0.7-0.1,1-0.1c2.5,0,3.7,2,3.7,6c0,1.9-0.3,3.3-1,4.3c-0.6,1-1.5,1.5-2.8,1.5c-1.2,0-2.1-0.5-2.8-1.5
				C327.5,32.1,327.2,30.6,327.2,28.7 M333.2,28.7c0-3.1-0.8-4.6-2.3-4.6c-1.5,0-2.3,1.5-2.3,4.6c0,3.1,0.7,4.7,2.2,4.7
				c0.8,0,1.4-0.4,1.7-1.2C333,31.5,333.2,30.3,333.2,28.7"/>
		</g>
		<g transform="matrix(.98481 -.17365 .17365 .98481 103.08 161.86)">
			<path class="st1" d="M277.9,89.6c-0.8,0-1.4,0.2-1.7,0.7c-0.3,0.4-0.5,1-0.5,1.8h-1.4c0.1-2.4,1.2-3.7,3.6-3.7
				c1.1,0,1.9,0.3,2.5,0.8s0.9,1.3,0.9,2.3c0,1.2-0.5,1.9-1.6,2.4c0.7,0.2,1.2,0.6,1.5,1c0.3,0.4,0.4,1,0.4,1.7
				c0,1.1-0.4,1.9-1.1,2.6c-0.7,0.6-1.6,1-2.8,1c-2.3,0-3.6-1.2-3.7-3.7h1.4c0.1,0.8,0.3,1.4,0.7,1.8c0.4,0.4,1,0.6,1.7,0.6
				c0.7,0,1.3-0.2,1.7-0.6s0.6-1,0.6-1.7c0-1.4-0.8-2.1-2.4-2.1l-0.6,0h-0.2v-1.2c1,0,1.7-0.1,2.1-0.4c0.4-0.2,0.6-0.7,0.6-1.4
				c0-0.6-0.2-1.1-0.5-1.4C279,89.8,278.5,89.6,277.9,89.6"/>
			<path class="st1" d="M290.1,88.4v1.4h-4.7L285,93c0.6-0.5,1.3-0.7,2.1-0.7c1.1,0,2,0.4,2.6,1.1c0.7,0.7,1,1.6,1,2.7
				c0,1.2-0.4,2.2-1.1,2.9c-0.7,0.8-1.7,1.1-2.8,1.1c-0.4,0-0.8,0-1.2-0.1c-0.4-0.1-0.7-0.2-0.9-0.3c-0.2-0.1-0.5-0.3-0.7-0.5
				c-0.2-0.2-0.3-0.4-0.4-0.6c-0.1-0.2-0.2-0.4-0.3-0.6c-0.1-0.3-0.1-0.4-0.2-0.5s0-0.2-0.1-0.4h1.4c0.3,1.3,1.1,1.9,2.3,1.9
				c0.8,0,1.4-0.2,1.8-0.7c0.4-0.5,0.7-1.1,0.7-1.9c0-0.8-0.2-1.5-0.7-2c-0.4-0.5-1.1-0.7-1.8-0.7c-0.4,0-0.8,0.1-1.1,0.2
				c-0.3,0.1-0.6,0.4-1,0.8h-1.3l0.8-6.2H290.1"/>
			<path class="st1" d="M292.1,94.3c0-0.9,0.1-1.8,0.2-2.5s0.4-1.3,0.6-1.7c0.2-0.4,0.5-0.8,0.9-1c0.3-0.3,0.7-0.4,1-0.5
				c0.3-0.1,0.7-0.1,1-0.1c2.5,0,3.7,2,3.7,6c0,1.9-0.3,3.3-1,4.3c-0.6,1-1.5,1.5-2.8,1.5c-1.2,0-2.1-0.5-2.8-1.5
				C292.4,97.6,292.1,96.2,292.1,94.3 M298.1,94.2c0-3.1-0.8-4.6-2.3-4.6c-1.5,0-2.3,1.5-2.3,4.6c0,3.1,0.7,4.7,2.2,4.7
				c0.8,0,1.4-0.4,1.7-1.2C297.9,97,298.1,95.8,298.1,94.2"/>
		</g>
		<g transform="matrix(-.98481 .17365 -.17365 -.98481 816.92 664.14)">
			<path class="st1" d="M318.6,29.2h-2.5v-1c1.1-0.1,1.8-0.3,2.1-0.6c0.3-0.2,0.6-0.8,0.9-1.7h0.9v11.3h-1.4L318.6,29.2"/>
			<path class="st1" d="M331.6,25.9v1.2c-1.3,1.7-2.3,3.4-3,5c-0.7,1.6-1.3,3.3-1.6,5.2h-1.5c0.4-1.9,1-3.5,1.6-4.9
				c0.7-1.4,1.7-3.1,3-5h-6.1v-1.4H331.6"/>
			<path class="st1" d="M332.9,31.8c0-0.9,0.1-1.8,0.2-2.5c0.2-0.7,0.4-1.3,0.6-1.7c0.2-0.4,0.5-0.8,0.9-1s0.7-0.4,1-0.5
				c0.3-0.1,0.7-0.1,1-0.1c2.5,0,3.7,2,3.7,6c0,1.9-0.3,3.3-1,4.3c-0.6,1-1.5,1.5-2.8,1.5c-1.2,0-2.1-0.5-2.8-1.5
				C333.2,35.2,332.9,33.7,332.9,31.8 M338.9,31.8c0-3.1-0.8-4.6-2.3-4.6c-1.5,0-2.3,1.5-2.3,4.6c0,3.1,0.7,4.7,2.2,4.7
				c0.8,0,1.4-0.4,1.7-1.2C338.7,34.6,338.9,33.4,338.9,31.8"/>
		</g>
		<g transform="matrix(.93969 -.34202 .34202 .93969 64.888 227.66)">
			<path class="st1" d="M272.8,85.6c-0.8,0-1.4,0.2-1.7,0.7c-0.3,0.4-0.5,1-0.5,1.8h-1.4c0.1-2.4,1.2-3.7,3.6-3.7
				c1.1,0,1.9,0.3,2.5,0.8s0.9,1.3,0.9,2.3c0,1.2-0.5,1.9-1.6,2.4c0.7,0.2,1.2,0.6,1.5,1c0.3,0.4,0.4,1,0.4,1.7
				c0,1.1-0.4,1.9-1.1,2.6c-0.7,0.6-1.6,1-2.8,1c-2.3,0-3.6-1.2-3.7-3.7h1.4c0.1,0.8,0.3,1.4,0.7,1.8s1,0.6,1.7,0.6
				c0.7,0,1.3-0.2,1.7-0.6s0.6-1,0.6-1.7c0-1.4-0.8-2.1-2.4-2.1l-0.6,0H272v-1.2c1,0,1.7-0.1,2.1-0.4c0.4-0.2,0.6-0.7,0.6-1.4
				c0-0.6-0.2-1.1-0.5-1.4C273.9,85.8,273.4,85.6,272.8,85.6"/>
			<path class="st1" d="M282.6,93h-4.8v-1.5l5.2-7.1h1v7.4h1.7V93h-1.7v2.7h-1.4V93 M282.6,91.7v-5l-3.6,5H282.6"/>
			<path class="st1" d="M287,90.2c0-0.9,0.1-1.8,0.2-2.5s0.4-1.3,0.6-1.7c0.2-0.4,0.5-0.8,0.9-1c0.3-0.3,0.7-0.4,1-0.5
				c0.3-0.1,0.7-0.1,1-0.1c2.5,0,3.7,2,3.7,6c0,1.9-0.3,3.3-1,4.3c-0.6,1-1.5,1.5-2.8,1.5c-1.2,0-2.1-0.5-2.8-1.5
				C287.3,93.6,287,92.1,287,90.2 M293,90.2c0-3.1-0.8-4.6-2.3-4.6c-1.5,0-2.3,1.5-2.3,4.6c0,3.1,0.7,4.7,2.2,4.7
				c0.8,0,1.4-0.4,1.7-1.2S293,91.8,293,90.2"/>
		</g>
		<g transform="matrix(-.93969 .34202 -.34202 -.93969 855.11 598.34)">
			<path class="st1" d="M323.7,33.2h-2.5v-1c1.1-0.1,1.8-0.3,2.1-0.6c0.3-0.2,0.6-0.8,0.9-1.7h0.9v11.3h-1.4L323.7,33.2"/>
			<path class="st1" d="M329.1,36.1c0-1,0.1-1.9,0.3-2.6c0.2-0.8,0.4-1.4,0.7-1.8c0.3-0.4,0.6-0.8,1-1.1c0.4-0.3,0.7-0.5,1.1-0.5
				c0.3-0.1,0.7-0.1,1.1-0.1c0.9,0,1.6,0.3,2.1,0.8c0.6,0.5,0.9,1.2,1.1,2.2H335c-0.1-0.5-0.3-1-0.7-1.3c-0.3-0.3-0.7-0.4-1.2-0.4
				c-0.8,0-1.4,0.4-1.9,1.1c-0.4,0.7-0.6,1.8-0.7,3.2c0.6-0.8,1.5-1.3,2.6-1.3c1,0,1.8,0.3,2.5,1c0.7,0.7,1,1.5,1,2.6
				c0,1.1-0.4,2-1.1,2.8c-0.7,0.7-1.6,1.1-2.7,1.1C330.4,41.7,329.1,39.8,329.1,36.1 M333,35.5c-0.7,0-1.3,0.2-1.7,0.7
				c-0.4,0.4-0.7,1-0.7,1.7c0,0.7,0.2,1.3,0.7,1.8c0.4,0.5,1,0.7,1.6,0.7c0.7,0,1.2-0.2,1.6-0.7c0.4-0.5,0.6-1.1,0.6-1.8
				c0-0.8-0.2-1.4-0.6-1.8C334.2,35.7,333.7,35.5,333,35.5"/>
			<path class="st1" d="M338,35.8c0-0.9,0.1-1.8,0.2-2.5c0.2-0.7,0.4-1.3,0.6-1.7c0.2-0.4,0.5-0.8,0.9-1s0.7-0.4,1-0.5
				c0.3-0.1,0.7-0.1,1-0.1c2.5,0,3.7,2,3.7,6c0,1.9-0.3,3.3-1,4.3c-0.6,1-1.5,1.5-2.8,1.5c-1.2,0-2.1-0.5-2.8-1.5
				C338.3,39.2,338,37.7,338,35.8 M344,35.8c0-3.1-0.8-4.6-2.3-4.6c-1.5,0-2.3,1.5-2.3,4.6c0,3.1,0.7,4.7,2.2,4.7
				c0.8,0,1.4-0.4,1.7-1.2S344,37.4,344,35.8"/>
		</g>
		<g transform="matrix(.86603 -.5 .5 .86603 38.706 299.08)">
			<path class="st1" d="M268.5,80.8c-0.8,0-1.4,0.2-1.7,0.7c-0.3,0.4-0.5,1-0.5,1.8h-1.4c0.1-2.4,1.2-3.7,3.6-3.7
				c1.1,0,1.9,0.3,2.5,0.8s0.9,1.3,0.9,2.3c0,1.2-0.5,1.9-1.6,2.4c0.7,0.2,1.2,0.6,1.5,1c0.3,0.4,0.4,1,0.4,1.7
				c0,1.1-0.4,1.9-1.1,2.6c-0.7,0.6-1.6,1-2.8,1c-2.3,0-3.6-1.2-3.7-3.7h1.4c0.1,0.8,0.3,1.4,0.7,1.8c0.4,0.4,1,0.6,1.7,0.6
				c0.7,0,1.3-0.2,1.7-0.6s0.6-1,0.6-1.7c0-1.4-0.8-2.1-2.4-2.1l-0.6,0h-0.2v-1.2c1,0,1.7-0.1,2.1-0.4c0.4-0.2,0.6-0.7,0.6-1.4
				c0-0.6-0.2-1.1-0.5-1.4C269.6,80.9,269.1,80.8,268.5,80.8"/>
			<path class="st1" d="M277.4,80.8c-0.8,0-1.4,0.2-1.7,0.7c-0.3,0.4-0.5,1-0.5,1.8h-1.4c0.1-2.4,1.2-3.7,3.6-3.7
				c1.1,0,1.9,0.3,2.5,0.8s0.9,1.3,0.9,2.3c0,1.2-0.5,1.9-1.6,2.4c0.7,0.2,1.2,0.6,1.5,1c0.3,0.4,0.4,1,0.4,1.7
				c0,1.1-0.4,1.9-1.1,2.6c-0.7,0.6-1.6,1-2.8,1c-2.3,0-3.6-1.2-3.7-3.7h1.4c0.1,0.8,0.3,1.4,0.7,1.8s1,0.6,1.7,0.6
				c0.7,0,1.3-0.2,1.7-0.6s0.6-1,0.6-1.7c0-1.4-0.8-2.1-2.4-2.1l-0.6,0h-0.2v-1.2c1,0,1.7-0.1,2.1-0.4c0.4-0.2,0.6-0.7,0.6-1.4
				c0-0.6-0.2-1.1-0.5-1.4C278.5,80.9,278,80.8,277.4,80.8"/>
			<path class="st1" d="M282.7,85.4c0-0.9,0.1-1.8,0.2-2.5s0.4-1.3,0.6-1.7c0.2-0.4,0.5-0.8,0.9-1c0.3-0.3,0.7-0.4,1-0.5
				c0.3-0.1,0.7-0.1,1-0.1c2.5,0,3.7,2,3.7,6c0,1.9-0.3,3.3-1,4.3c-0.6,1-1.5,1.5-2.8,1.5c-1.2,0-2.1-0.5-2.8-1.5
				C283,88.8,282.7,87.3,282.7,85.4 M288.6,85.4c0-3.1-0.8-4.6-2.3-4.6c-1.5,0-2.3,1.5-2.3,4.6c0,3.1,0.7,4.7,2.2,4.7
				c0.8,0,1.4-0.4,1.7-1.2C288.4,88.2,288.6,87,288.6,85.4"/>
		</g>
		<g transform="matrix(-.86603 .5 -.5 -.86603 881.29 526.92)">
			<path class="st1" d="M328,38.1h-2.5v-1c1.1-0.1,1.8-0.3,2.1-0.6s0.6-0.8,0.9-1.7h0.9v11.3H328L328,38.1"/>
			<path class="st1" d="M340.4,34.8v1.4h-4.7l-0.4,3.2c0.6-0.5,1.3-0.7,2.1-0.7c1.1,0,2,0.4,2.6,1.1c0.7,0.7,1,1.6,1,2.7
				c0,1.2-0.4,2.2-1.1,2.9c-0.7,0.8-1.7,1.1-2.8,1.1c-0.4,0-0.8,0-1.2-0.1c-0.4-0.1-0.7-0.2-0.9-0.3c-0.2-0.1-0.5-0.3-0.7-0.5
				c-0.2-0.2-0.3-0.4-0.4-0.6c-0.1-0.2-0.2-0.4-0.3-0.6c-0.1-0.3-0.1-0.4-0.2-0.5s0-0.2-0.1-0.4h1.4c0.3,1.3,1.1,1.9,2.3,1.9
				c0.8,0,1.4-0.2,1.8-0.7c0.4-0.5,0.7-1.1,0.7-1.9c0-0.8-0.2-1.5-0.7-2c-0.4-0.5-1.1-0.7-1.8-0.7c-0.4,0-0.8,0.1-1.1,0.2
				c-0.3,0.1-0.6,0.4-1,0.8h-1.3l0.8-6.2H340.4"/>
			<path class="st1" d="M342.4,40.7c0-0.9,0.1-1.8,0.2-2.5c0.2-0.7,0.4-1.3,0.6-1.7c0.2-0.4,0.5-0.8,0.9-1c0.3-0.3,0.7-0.4,1-0.5
				c0.3-0.1,0.7-0.1,1-0.1c2.5,0,3.7,2,3.7,6c0,1.9-0.3,3.3-1,4.3c-0.6,1-1.5,1.5-2.8,1.5c-1.2,0-2.1-0.5-2.8-1.5
				C342.7,44,342.4,42.6,342.4,40.7 M348.4,40.6c0-3.1-0.8-4.6-2.3-4.6c-1.5,0-2.3,1.5-2.3,4.6c0,3.1,0.7,4.7,2.2,4.7
				c0.8,0,1.4-0.4,1.7-1.2S348.4,42.2,348.4,40.6"/>
		</g>
		<g transform="matrix(.76604 -.64279 .64279 .76604 25.325 373.97)">
			<path class="st1" d="M265,75.2c-0.8,0-1.4,0.2-1.7,0.7c-0.3,0.4-0.5,1-0.5,1.8h-1.4c0.1-2.4,1.2-3.7,3.6-3.7
				c1.1,0,1.9,0.3,2.5,0.8s0.9,1.3,0.9,2.3c0,1.2-0.5,1.9-1.6,2.4c0.7,0.2,1.2,0.6,1.5,1c0.3,0.4,0.4,1,0.4,1.7
				c0,1.1-0.4,1.9-1.1,2.6c-0.7,0.6-1.6,1-2.8,1c-2.3,0-3.6-1.2-3.7-3.7h1.4c0.1,0.8,0.3,1.4,0.7,1.8c0.4,0.4,1,0.6,1.7,0.6
				c0.7,0,1.3-0.2,1.7-0.6s0.6-1,0.6-1.7c0-1.4-0.8-2.1-2.4-2.1l-0.6,0h-0.2V79c1,0,1.7-0.1,2.1-0.4c0.4-0.2,0.6-0.7,0.6-1.4
				c0-0.6-0.2-1.1-0.5-1.4C266.1,75.4,265.7,75.2,265,75.2"/>
			<path class="st1" d="M270.4,77.9c0.1-2.6,1.3-3.9,3.7-3.9c1.1,0,2,0.3,2.6,0.9c0.7,0.6,1,1.4,1,2.4c0,1.4-0.8,2.5-2.4,3.4
				l-1.6,0.9c-0.7,0.4-1.2,0.7-1.5,1.1c-0.3,0.4-0.5,0.8-0.6,1.2h6v1.4h-7.6c0.1-1.2,0.3-2.2,0.8-2.9c0.4-0.7,1.2-1.4,2.4-2l1.5-0.8
				c1-0.6,1.5-1.3,1.5-2.2c0-0.6-0.2-1.1-0.6-1.5c-0.4-0.4-1-0.6-1.6-0.6c-1.4,0-2.2,0.9-2.3,2.7L270.4,77.9"/>
			<path class="st1" d="M279.2,79.9c0-0.9,0.1-1.8,0.2-2.5s0.4-1.3,0.6-1.7c0.2-0.4,0.5-0.8,0.9-1c0.3-0.3,0.7-0.4,1-0.5
				c0.3-0.1,0.7-0.1,1-0.1c2.5,0,3.7,2,3.7,6c0,1.9-0.3,3.3-1,4.3c-0.6,1-1.5,1.5-2.8,1.5c-1.2,0-2.1-0.5-2.8-1.5
				C279.5,83.2,279.2,81.8,279.2,79.9 M285.2,79.8c0-3.1-0.8-4.6-2.3-4.6c-1.5,0-2.3,1.5-2.3,4.6c0,3.1,0.7,4.7,2.2,4.7
				c0.8,0,1.4-0.4,1.7-1.2C285,82.6,285.2,81.4,285.2,79.8"/>
		</g>
		<g transform="matrix(-.76604 .64279 -.64279 -.76604 894.68 452.03)">
			<path class="st1" d="M331.5,43.6h-2.5v-1c1.1-0.1,1.8-0.3,2.1-0.6c0.3-0.2,0.6-0.8,0.9-1.7h0.9v11.3h-1.4L331.5,43.6"/>
			<path class="st1" d="M341.5,49h-4.8v-1.5l5.2-7.1h1v7.4h1.7V49h-1.7v2.7h-1.4V49 M341.5,47.7v-5l-3.6,5H341.5"/>
			<path class="st1" d="M345.8,46.2c0-0.9,0.1-1.8,0.2-2.5c0.2-0.7,0.4-1.3,0.6-1.7c0.2-0.4,0.5-0.8,0.9-1c0.3-0.3,0.7-0.4,1-0.5
				c0.3-0.1,0.7-0.1,1-0.1c2.5,0,3.7,2,3.7,6c0,1.9-0.3,3.3-1,4.3c-0.6,1-1.5,1.5-2.8,1.5c-1.2,0-2.1-0.5-2.8-1.5
				C346.1,49.6,345.8,48.1,345.8,46.2 M351.8,46.2c0-3.1-0.8-4.6-2.3-4.6c-1.5,0-2.3,1.5-2.3,4.6c0,3.1,0.7,4.7,2.2,4.7
				c0.8,0,1.4-0.4,1.7-1.2S351.8,47.8,351.8,46.2"/>
		</g>
		<g transform="matrix(.64279 -.76604 .76604 .64279 25.151 450.04)">
			<path class="st1" d="M262.6,69.2c-0.8,0-1.4,0.2-1.7,0.7c-0.3,0.4-0.5,1-0.5,1.8h-1.4c0.1-2.4,1.2-3.7,3.6-3.7
				c1.1,0,1.9,0.3,2.5,0.8s0.9,1.3,0.9,2.3c0,1.2-0.5,1.9-1.6,2.4c0.7,0.2,1.2,0.6,1.5,1c0.3,0.4,0.4,1,0.4,1.7
				c0,1.1-0.4,1.9-1.1,2.6c-0.7,0.6-1.6,1-2.8,1c-2.3,0-3.6-1.2-3.7-3.7h1.4c0.1,0.8,0.3,1.4,0.7,1.8c0.4,0.4,1,0.6,1.7,0.6
				c0.7,0,1.3-0.2,1.7-0.6s0.6-1,0.6-1.7c0-1.4-0.8-2.1-2.4-2.1l-0.6,0h-0.2v-1.2c1,0,1.7-0.1,2.1-0.4c0.4-0.2,0.6-0.7,0.6-1.4
				c0-0.6-0.2-1.1-0.5-1.4C263.7,69.4,263.2,69.2,262.6,69.2"/>
			<path class="st1" d="M271.4,71.2h-2.5v-1c1.1-0.1,1.8-0.3,2.1-0.6c0.3-0.2,0.6-0.8,0.9-1.7h0.9v11.3h-1.4L271.4,71.2"/>
			<path class="st1" d="M276.8,73.8c0-0.9,0.1-1.8,0.2-2.5s0.4-1.3,0.6-1.7c0.2-0.4,0.5-0.8,0.9-1s0.7-0.4,1-0.5
				c0.3-0.1,0.7-0.1,1-0.1c2.5,0,3.7,2,3.7,6c0,1.9-0.3,3.3-1,4.3c-0.6,1-1.5,1.5-2.8,1.5c-1.2,0-2.1-0.5-2.8-1.5
				C277.1,77.2,276.8,75.7,276.8,73.8 M282.8,73.8c0-3.1-0.8-4.6-2.3-4.6c-1.5,0-2.3,1.5-2.3,4.6c0,3.1,0.7,4.7,2.2,4.7
				c0.8,0,1.4-0.4,1.7-1.2C282.6,76.6,282.8,75.4,282.8,73.8"/>
		</g>
		<g transform="matrix(-.64279 .76604 -.76604 -.64279 894.85 375.96)">
			<path class="st1" d="M333.9,49.6h-2.5v-1c1.1-0.1,1.8-0.3,2.1-0.6c0.3-0.2,0.6-0.8,0.9-1.7h0.9v11.3h-1.4L333.9,49.6"/>
			<path class="st1" d="M342.9,47.6c-0.8,0-1.4,0.2-1.7,0.7c-0.3,0.4-0.5,1-0.5,1.8h-1.4c0.1-2.4,1.2-3.7,3.6-3.7
				c1.1,0,1.9,0.3,2.5,0.8s0.9,1.3,0.9,2.3c0,1.2-0.5,1.9-1.6,2.4c0.7,0.2,1.2,0.6,1.5,1c0.3,0.4,0.4,1,0.4,1.7
				c0,1.1-0.4,1.9-1.1,2.6c-0.7,0.6-1.6,1-2.8,1c-2.3,0-3.6-1.2-3.7-3.7h1.4c0.1,0.8,0.3,1.4,0.7,1.8c0.4,0.4,1,0.6,1.7,0.6
				c0.7,0,1.3-0.2,1.7-0.6s0.6-1,0.6-1.7c0-1.4-0.8-2.1-2.4-2.1l-0.6,0h-0.2v-1.2c1,0,1.7-0.1,2.1-0.4c0.4-0.2,0.6-0.7,0.6-1.4
				c0-0.6-0.2-1.1-0.5-1.4C344,47.8,343.6,47.6,342.9,47.6"/>
			<path class="st1" d="M348.2,52.2c0-0.9,0.1-1.8,0.2-2.5s0.4-1.3,0.6-1.7c0.2-0.4,0.5-0.8,0.9-1s0.7-0.4,1-0.5
				c0.3-0.1,0.7-0.1,1-0.1c2.5,0,3.7,2,3.7,6c0,1.9-0.3,3.3-1,4.3c-0.6,1-1.5,1.5-2.8,1.5c-1.2,0-2.1-0.5-2.8-1.5
				C348.5,55.6,348.2,54.1,348.2,52.2 M354.2,52.2c0-3.1-0.8-4.6-2.3-4.6c-1.5,0-2.3,1.5-2.3,4.6c0,3.1,0.7,4.7,2.2,4.7
				c0.8,0,1.4-0.4,1.7-1.2S354.2,53.8,354.2,52.2"/>
		</g>
		<g transform="matrix(.5 -.86603 .86603 .5 38.19 524.99)">
			<path class="st1" d="M261.3,62.8c-0.8,0-1.4,0.2-1.7,0.7c-0.3,0.4-0.5,1-0.5,1.8h-1.4c0.1-2.4,1.2-3.7,3.6-3.7
				c1.1,0,1.9,0.3,2.5,0.8s0.9,1.3,0.9,2.3c0,1.2-0.5,1.9-1.6,2.4c0.7,0.2,1.2,0.6,1.5,1c0.3,0.4,0.4,1,0.4,1.7
				c0,1.1-0.4,1.9-1.1,2.6c-0.7,0.6-1.6,1-2.8,1c-2.3,0-3.6-1.2-3.7-3.7h1.4c0.1,0.8,0.3,1.4,0.7,1.8c0.4,0.4,1,0.6,1.7,0.6
				c0.7,0,1.3-0.2,1.7-0.6s0.6-1,0.6-1.7c0-1.4-0.8-2.1-2.4-2.1l-0.6,0h-0.2v-1.2c1,0,1.7-0.1,2.1-0.4c0.4-0.2,0.6-0.7,0.6-1.4
				c0-0.6-0.2-1.1-0.5-1.4C262.4,63,261.9,62.8,261.3,62.8"/>
			<path class="st1" d="M266.6,67.5c0-0.9,0.1-1.8,0.2-2.5s0.4-1.3,0.6-1.7c0.2-0.4,0.5-0.8,0.9-1c0.3-0.3,0.7-0.4,1-0.5
				c0.3-0.1,0.7-0.1,1-0.1c2.5,0,3.7,2,3.7,6c0,1.9-0.3,3.3-1,4.3c-0.6,1-1.5,1.5-2.8,1.5c-1.2,0-2.1-0.5-2.8-1.5
				C266.9,70.8,266.6,69.4,266.6,67.5 M272.5,67.4c0-3.1-0.8-4.6-2.3-4.6c-1.5,0-2.3,1.5-2.3,4.6c0,3.1,0.7,4.7,2.2,4.7
				c0.8,0,1.4-0.4,1.7-1.2C272.4,70.2,272.5,69,272.5,67.4"/>
			<path class="st1" d="M275.5,67.5c0-0.9,0.1-1.8,0.2-2.5s0.4-1.3,0.6-1.7c0.2-0.4,0.5-0.8,0.9-1c0.3-0.3,0.7-0.4,1-0.5
				c0.3-0.1,0.7-0.1,1-0.1c2.5,0,3.7,2,3.7,6c0,1.9-0.3,3.3-1,4.3c-0.6,1-1.5,1.5-2.8,1.5c-1.2,0-2.1-0.5-2.8-1.5
				C275.8,70.8,275.5,69.4,275.5,67.5 M281.5,67.4c0-3.1-0.8-4.6-2.3-4.6c-1.5,0-2.3,1.5-2.3,4.6c0,3.1,0.7,4.7,2.2,4.7
				c0.8,0,1.4-0.4,1.7-1.2S281.5,69,281.5,67.4"/>
		</g>
		<g transform="matrix(-.5 .86603 -.86603 -.5 881.81 301.01)">
			<path class="st1" d="M335.2,56h-2.5v-1c1.1-0.1,1.8-0.3,2.1-0.6c0.3-0.2,0.6-0.8,0.9-1.7h0.9v11.3h-1.4L335.2,56"/>
			<path class="st1" d="M340.8,56.7c0.1-2.6,1.3-3.9,3.7-3.9c1.1,0,2,0.3,2.6,0.9c0.7,0.6,1,1.4,1,2.4c0,1.4-0.8,2.5-2.4,3.4
				l-1.6,0.9c-0.7,0.4-1.2,0.7-1.5,1.1c-0.3,0.4-0.5,0.8-0.6,1.2h6v1.4h-7.6c0.1-1.2,0.3-2.2,0.8-2.9c0.4-0.7,1.2-1.4,2.4-2l1.5-0.8
				c1-0.6,1.5-1.3,1.5-2.2c0-0.6-0.2-1.1-0.6-1.5s-1-0.6-1.6-0.6c-1.4,0-2.2,0.9-2.3,2.7L340.8,56.7"/>
			<path class="st1" d="M349.6,58.6c0-0.9,0.1-1.8,0.2-2.5c0.2-0.7,0.4-1.3,0.6-1.7c0.2-0.4,0.5-0.8,0.9-1c0.3-0.3,0.7-0.4,1-0.5
				c0.3-0.1,0.7-0.1,1-0.1c2.5,0,3.7,2,3.7,6c0,1.9-0.3,3.3-1,4.3c-0.6,1-1.5,1.5-2.8,1.5c-1.2,0-2.1-0.5-2.8-1.5
				C349.9,62,349.6,60.5,349.6,58.6 M355.5,58.6c0-3.1-0.8-4.6-2.3-4.6c-1.5,0-2.3,1.5-2.3,4.6c0,3.1,0.7,4.7,2.2,4.7
				c0.8,0,1.4-0.4,1.7-1.2S355.5,60.2,355.5,58.6"/>
		</g>
		<g transform="matrix(.34202 -.93969 .93969 .34202 64.045 596.54)">
			<path class="st1" d="M257.6,59c0.1-2.6,1.3-3.9,3.7-3.9c1.1,0,2,0.3,2.6,0.9c0.7,0.6,1,1.4,1,2.4c0,1.4-0.8,2.5-2.4,3.4l-1.6,0.9
				c-0.7,0.4-1.2,0.7-1.5,1.1c-0.3,0.4-0.5,0.8-0.6,1.2h6v1.4h-7.6c0.1-1.2,0.3-2.2,0.8-2.9c0.4-0.7,1.2-1.4,2.4-2l1.5-0.8
				c1-0.6,1.5-1.3,1.5-2.2c0-0.6-0.2-1.1-0.6-1.5c-0.4-0.4-1-0.6-1.6-0.6c-1.4,0-2.2,0.9-2.3,2.7L257.6,59"/>
			<path class="st1" d="M273.8,60.6c0,1-0.1,1.9-0.3,2.7c-0.2,0.8-0.4,1.4-0.7,1.8c-0.3,0.4-0.6,0.8-1,1.1c-0.4,0.3-0.7,0.4-1.1,0.5
				c-0.3,0.1-0.7,0.1-1.1,0.1c-0.9,0-1.6-0.3-2.2-0.8c-0.6-0.5-0.9-1.2-1.1-2.2h1.4c0.1,0.5,0.3,1,0.7,1.3c0.3,0.3,0.7,0.4,1.2,0.4
				c0.8,0,1.4-0.4,1.9-1.1c0.4-0.7,0.7-1.8,0.7-3.2c-0.7,0.8-1.6,1.3-2.6,1.3c-1,0-1.9-0.3-2.5-1s-1-1.5-1-2.6c0-1.1,0.3-2,1-2.7
				c0.7-0.7,1.6-1.1,2.7-1.1C272.6,55.1,273.8,57,273.8,60.6 M270,56.3c-0.7,0-1.2,0.2-1.6,0.7c-0.4,0.5-0.6,1.1-0.6,1.8
				c0,0.8,0.2,1.4,0.6,1.8c0.4,0.4,0.9,0.7,1.6,0.7c0.7,0,1.2-0.2,1.7-0.7c0.4-0.4,0.7-1,0.7-1.7c0-0.7-0.2-1.3-0.7-1.8
				C271.2,56.6,270.6,56.3,270,56.3"/>
			<path class="st1" d="M275.2,61c0-0.9,0.1-1.8,0.2-2.5c0.2-0.7,0.4-1.3,0.6-1.7c0.2-0.4,0.5-0.8,0.9-1c0.3-0.3,0.7-0.4,1-0.5
				c0.3-0.1,0.7-0.1,1-0.1c2.5,0,3.7,2,3.7,6c0,1.9-0.3,3.3-1,4.3c-0.6,1-1.5,1.5-2.8,1.5c-1.2,0-2.1-0.5-2.8-1.5
				C275.6,64.3,275.2,62.9,275.2,61 M281.2,60.9c0-3.1-0.8-4.6-2.3-4.6c-1.5,0-2.3,1.5-2.3,4.6c0,3.1,0.7,4.7,2.2,4.7
				c0.8,0,1.4-0.4,1.7-1.2C281,63.7,281.2,62.5,281.2,60.9"/>
		</g>
		<g transform="matrix(-.34202 .93969 -.93969 -.34202 855.95 229.46)">
			<path class="st1" d="M335.4,62.5h-2.5v-1c1.1-0.1,1.8-0.3,2.1-0.6s0.6-0.8,0.9-1.7h0.9v11.3h-1.4L335.4,62.5"/>
			<path class="st1" d="M344.3,62.5h-2.5v-1c1.1-0.1,1.8-0.3,2.1-0.6s0.6-0.8,0.9-1.7h0.9v11.3h-1.4L344.3,62.5"/>
			<path class="st1" d="M349.8,65.1c0-0.9,0.1-1.8,0.2-2.5c0.2-0.7,0.4-1.3,0.6-1.7c0.2-0.4,0.5-0.8,0.9-1c0.3-0.3,0.7-0.4,1-0.5
				c0.3-0.1,0.7-0.1,1-0.1c2.5,0,3.7,2,3.7,6c0,1.9-0.3,3.3-1,4.3c-0.6,1-1.5,1.5-2.8,1.5c-1.2,0-2.1-0.5-2.8-1.5
				C350.1,68.5,349.8,67,349.8,65.1 M355.7,65.1c0-3.1-0.8-4.6-2.3-4.6c-1.5,0-2.3,1.5-2.3,4.6c0,3.1,0.7,4.7,2.2,4.7
				c0.8,0,1.4-0.4,1.7-1.2C355.6,67.9,355.7,66.7,355.7,65.1"/>
		</g>
		<g transform="matrix(.17365 -.98481 .98481 .17365 101.93 662.51)">
			<path class="st1" d="M258.5,52.6c0.1-2.6,1.3-3.9,3.7-3.9c1.1,0,2,0.3,2.6,0.9c0.7,0.6,1,1.4,1,2.4c0,1.4-0.8,2.5-2.4,3.4
				l-1.6,0.9c-0.7,0.4-1.2,0.7-1.5,1.1c-0.3,0.4-0.5,0.8-0.6,1.2h6V60h-7.6c0.1-1.2,0.3-2.2,0.8-2.9c0.4-0.7,1.2-1.4,2.4-2l1.5-0.8
				c1-0.6,1.5-1.3,1.5-2.2c0-0.6-0.2-1.1-0.6-1.5s-1-0.6-1.6-0.6c-1.4,0-2.2,0.9-2.3,2.7L258.5,52.6"/>
			<path class="st1" d="M272.8,54.1c1.3,0.6,2,1.6,2,2.8c0,1-0.4,1.9-1.1,2.5c-0.7,0.7-1.6,1-2.7,1c-1.1,0-2-0.3-2.8-1
				c-0.7-0.7-1.1-1.5-1.1-2.5c0-1.3,0.6-2.2,1.9-2.8c-0.6-0.4-1-0.7-1.2-1.1c-0.2-0.3-0.3-0.8-0.3-1.3c0-0.9,0.3-1.6,0.9-2.2
				c0.6-0.6,1.5-0.8,2.5-0.8c1,0,1.8,0.3,2.4,0.8c0.6,0.6,1,1.3,1,2.2c0,0.5-0.1,1-0.3,1.3C273.8,53.4,273.4,53.7,272.8,54.1
				 M272.4,50.4c-0.4-0.3-0.8-0.5-1.4-0.5c-0.6,0-1.1,0.2-1.4,0.5c-0.4,0.3-0.5,0.8-0.5,1.3c0,0.5,0.2,1,0.5,1.3
				c0.4,0.3,0.8,0.5,1.4,0.5c0.6,0,1.1-0.2,1.4-0.5c0.4-0.3,0.5-0.7,0.5-1.3C273,51.2,272.8,50.7,272.4,50.4 M272.7,55.3
				c-0.4-0.4-1-0.6-1.7-0.6c-0.7,0-1.3,0.2-1.7,0.6c-0.4,0.4-0.7,0.9-0.7,1.6s0.2,1.2,0.6,1.6c0.4,0.4,1,0.6,1.7,0.6
				c0.7,0,1.3-0.2,1.7-0.6c0.4-0.4,0.7-1,0.7-1.6C273.4,56.2,273.1,55.7,272.7,55.3"/>
			<path class="st1" d="M276.2,54.5c0-0.9,0.1-1.8,0.2-2.5s0.4-1.3,0.6-1.7c0.2-0.4,0.5-0.8,0.9-1s0.7-0.4,1-0.5
				c0.3-0.1,0.7-0.1,1-0.1c2.5,0,3.7,2,3.7,6c0,1.9-0.3,3.3-1,4.3c-0.6,1-1.5,1.5-2.8,1.5c-1.2,0-2.1-0.5-2.8-1.5
				C276.5,57.9,276.2,56.4,276.2,54.5 M282.2,54.5c0-3.1-0.8-4.6-2.3-4.6c-1.5,0-2.3,1.5-2.3,4.6c0,3.1,0.7,4.7,2.2,4.7
				c0.8,0,1.4-0.4,1.7-1.2S282.2,56.1,282.2,54.5"/>
		</g>
		<g transform="matrix(-.17365 .98481 -.98481 -.17365 818.07 163.49)">
			<path class="st1" d="M334.5,68.9H332v-1c1.1-0.1,1.8-0.3,2.1-0.6c0.3-0.2,0.6-0.8,0.9-1.7h0.9V77h-1.4L334.5,68.9"/>
			<path class="st1" d="M339.9,71.5c0-0.9,0.1-1.8,0.2-2.5s0.4-1.3,0.6-1.7c0.2-0.4,0.5-0.8,0.9-1s0.7-0.4,1-0.5
				c0.3-0.1,0.7-0.1,1-0.1c2.5,0,3.7,2,3.7,6c0,1.9-0.3,3.3-1,4.3c-0.6,1-1.5,1.5-2.8,1.5c-1.2,0-2.1-0.5-2.8-1.5
				C340.2,74.9,339.9,73.4,339.9,71.5 M345.9,71.5c0-3.1-0.8-4.6-2.3-4.6c-1.5,0-2.3,1.5-2.3,4.6c0,3.1,0.7,4.7,2.2,4.7
				c0.8,0,1.4-0.4,1.7-1.2C345.7,74.3,345.9,73.1,345.9,71.5"/>
			<path class="st1" d="M348.8,71.5c0-0.9,0.1-1.8,0.2-2.5s0.4-1.3,0.6-1.7c0.2-0.4,0.5-0.8,0.9-1s0.7-0.4,1-0.5
				c0.3-0.1,0.7-0.1,1-0.1c2.5,0,3.7,2,3.7,6c0,1.9-0.3,3.3-1,4.3c-0.6,1-1.5,1.5-2.8,1.5c-1.2,0-2.1-0.5-2.8-1.5
				C349.1,74.9,348.8,73.4,348.8,71.5 M354.8,71.5c0-3.1-0.8-4.6-2.3-4.6c-1.5,0-2.3,1.5-2.3,4.6c0,3.1,0.7,4.7,2.2,4.7
				c0.8,0,1.4-0.4,1.7-1.2C354.6,74.3,354.8,73.1,354.8,71.5"/>
		</g>
		<g transform="matrix(-1.8612e-8 -1 1 -1.8612e-8 150.7 720.89)">
			<path class="st1" d="M260.5,46.4c0.1-2.6,1.3-3.9,3.7-3.9c1.1,0,2,0.3,2.6,0.9c0.7,0.6,1,1.4,1,2.4c0,1.4-0.8,2.5-2.4,3.4
				l-1.6,0.9c-0.7,0.4-1.2,0.7-1.5,1.1c-0.3,0.4-0.5,0.8-0.6,1.2h6v1.4h-7.6c0.1-1.2,0.3-2.2,0.8-2.9c0.4-0.7,1.2-1.4,2.4-2l1.5-0.8
				c1-0.6,1.5-1.3,1.5-2.2c0-0.6-0.2-1.1-0.6-1.5s-1-0.6-1.6-0.6c-1.4,0-2.2,0.9-2.3,2.7L260.5,46.4"/>
			<path class="st1" d="M276.9,42.5v1.2c-1.3,1.7-2.3,3.4-3,5c-0.7,1.6-1.3,3.3-1.6,5.2h-1.5c0.4-1.9,1-3.5,1.6-4.9s1.7-3.1,3-5
				h-6.1v-1.4H276.9"/>
			<path class="st1" d="M278.2,48.4c0-0.9,0.1-1.8,0.2-2.5c0.2-0.7,0.4-1.3,0.6-1.7c0.2-0.4,0.5-0.8,0.9-1c0.3-0.3,0.7-0.4,1-0.5
				c0.3-0.1,0.7-0.1,1-0.1c2.5,0,3.7,2,3.7,6c0,1.9-0.3,3.3-1,4.3c-0.6,1-1.5,1.5-2.8,1.5c-1.2,0-2.1-0.5-2.8-1.5
				C278.5,51.7,278.2,50.3,278.2,48.4 M284.2,48.3c0-3.1-0.8-4.6-2.3-4.6c-1.5,0-2.3,1.5-2.3,4.6c0,3.1,0.7,4.7,2.2,4.7
				c0.8,0,1.4-0.4,1.7-1.2C284,51.1,284.2,49.9,284.2,48.3"/>
		</g>
		<g transform="matrix(1.8612e-8 1 -1 1.8612e-8 769.3 105.11)">
			<path class="st1" d="M340.9,77.4c0,1-0.1,1.9-0.3,2.7c-0.2,0.8-0.4,1.4-0.7,1.8c-0.3,0.4-0.6,0.8-1,1.1c-0.4,0.3-0.7,0.4-1.1,0.5
				c-0.3,0.1-0.7,0.1-1.1,0.1c-0.9,0-1.6-0.3-2.2-0.8c-0.6-0.5-0.9-1.2-1.1-2.2h1.4c0.1,0.5,0.3,1,0.7,1.3c0.3,0.3,0.7,0.4,1.2,0.4
				c0.8,0,1.4-0.4,1.9-1.1c0.4-0.7,0.7-1.8,0.7-3.2c-0.7,0.8-1.6,1.3-2.6,1.3s-1.9-0.3-2.5-1s-1-1.5-1-2.6c0-1.1,0.3-2,1-2.7
				c0.7-0.7,1.6-1.1,2.7-1.1C339.6,71.9,340.9,73.7,340.9,77.4 M337.1,73.1c-0.7,0-1.2,0.2-1.6,0.7s-0.6,1.1-0.6,1.8
				c0,0.8,0.2,1.4,0.6,1.8c0.4,0.4,0.9,0.7,1.6,0.7c0.7,0,1.2-0.2,1.7-0.7c0.4-0.4,0.7-1,0.7-1.7c0-0.7-0.2-1.3-0.7-1.8
				C338.3,73.3,337.7,73.1,337.1,73.1"/>
			<path class="st1" d="M342.3,77.7c0-0.9,0.1-1.8,0.2-2.5c0.2-0.7,0.4-1.3,0.6-1.7c0.2-0.4,0.5-0.8,0.9-1c0.3-0.3,0.7-0.4,1-0.5
				c0.3-0.1,0.7-0.1,1-0.1c2.5,0,3.7,2,3.7,6c0,1.9-0.3,3.3-1,4.3c-0.6,1-1.5,1.5-2.8,1.5c-1.2,0-2.1-0.5-2.8-1.5
				C342.7,81.1,342.3,79.6,342.3,77.7 M348.3,77.7c0-3.1-0.8-4.6-2.3-4.6c-1.5,0-2.3,1.5-2.3,4.6c0,3.1,0.7,4.7,2.2,4.7
				c0.8,0,1.4-0.4,1.7-1.2C348.1,80.5,348.3,79.3,348.3,77.7"/>
		</g>
		<g transform="matrix(-.17365 -.98481 .98481 -.17365 208.86 769.92)">
			<path class="st1" d="M263.6,40.7c0.1-2.6,1.3-3.9,3.7-3.9c1.1,0,2,0.3,2.6,0.9c0.7,0.6,1,1.4,1,2.4c0,1.4-0.8,2.5-2.4,3.4
				l-1.6,0.9c-0.7,0.4-1.2,0.7-1.5,1.1c-0.3,0.4-0.5,0.8-0.6,1.2h6v1.4h-7.6c0.1-1.2,0.3-2.2,0.8-2.9c0.4-0.7,1.2-1.4,2.4-2l1.5-0.8
				c1-0.6,1.5-1.3,1.5-2.2c0-0.6-0.2-1.1-0.6-1.5c-0.4-0.4-1-0.6-1.6-0.6c-1.4,0-2.2,0.9-2.3,2.7L263.6,40.7"/>
			<path class="st1" d="M272.4,42.9c0-1,0.1-1.9,0.3-2.6c0.2-0.8,0.4-1.4,0.7-1.8c0.3-0.4,0.6-0.8,1-1.1c0.4-0.3,0.7-0.5,1.1-0.5
				c0.3-0.1,0.7-0.1,1.1-0.1c0.9,0,1.6,0.3,2.1,0.8c0.6,0.5,0.9,1.2,1.1,2.2h-1.4c-0.1-0.5-0.3-1-0.7-1.3c-0.3-0.3-0.7-0.4-1.2-0.4
				c-0.8,0-1.4,0.4-1.9,1.1c-0.4,0.7-0.6,1.8-0.7,3.2c0.6-0.8,1.5-1.3,2.6-1.3c1,0,1.8,0.3,2.5,1c0.7,0.7,1,1.5,1,2.6
				c0,1.1-0.4,2-1.1,2.8c-0.7,0.7-1.6,1.1-2.7,1.1C273.6,48.5,272.4,46.6,272.4,42.9 M276.3,42.3c-0.7,0-1.3,0.2-1.7,0.7
				c-0.4,0.4-0.7,1-0.7,1.7c0,0.7,0.2,1.3,0.7,1.8c0.4,0.5,1,0.7,1.6,0.7c0.7,0,1.2-0.2,1.6-0.7c0.4-0.5,0.6-1.1,0.6-1.8
				c0-0.8-0.2-1.4-0.6-1.8C277.5,42.5,276.9,42.3,276.3,42.3"/>
			<path class="st1" d="M281.3,42.6c0-0.9,0.1-1.8,0.2-2.5c0.2-0.7,0.4-1.3,0.6-1.7c0.2-0.4,0.5-0.8,0.9-1c0.3-0.3,0.7-0.4,1-0.5
				c0.3-0.1,0.7-0.1,1-0.1c2.5,0,3.7,2,3.7,6c0,1.9-0.3,3.3-1,4.3c-0.6,1-1.5,1.5-2.8,1.5c-1.2,0-2.1-0.5-2.8-1.5
				C281.6,46,281.3,44.5,281.3,42.6 M287.3,42.6c0-3.1-0.8-4.6-2.3-4.6c-1.5,0-2.3,1.5-2.3,4.6c0,3.1,0.7,4.7,2.2,4.7
				c0.8,0,1.4-0.4,1.7-1.2S287.3,44.2,287.3,42.6"/>
		</g>
		<g transform="matrix(.17365 .98481 -.98481 .17365 711.14 56.075)">
			<path class="st1" d="M335.9,83c1.3,0.6,2,1.6,2,2.8c0,1-0.4,1.9-1.1,2.5c-0.7,0.7-1.6,1-2.7,1s-2-0.3-2.8-1
				c-0.7-0.7-1.1-1.5-1.1-2.5c0-1.3,0.6-2.2,1.9-2.8c-0.6-0.4-1-0.7-1.2-1.1c-0.2-0.3-0.3-0.8-0.3-1.3c0-0.9,0.3-1.6,0.9-2.2
				c0.6-0.6,1.5-0.8,2.5-0.8s1.8,0.3,2.4,0.8c0.6,0.6,1,1.3,1,2.2c0,0.5-0.1,1-0.3,1.3C336.9,82.3,336.5,82.6,335.9,83 M335.5,79.3
				c-0.4-0.3-0.8-0.5-1.4-0.5s-1.1,0.2-1.4,0.5c-0.4,0.3-0.5,0.8-0.5,1.3c0,0.5,0.2,1,0.5,1.3c0.4,0.3,0.8,0.5,1.4,0.5
				c0.6,0,1.1-0.2,1.4-0.5c0.4-0.3,0.5-0.7,0.5-1.3C336.1,80.1,335.9,79.6,335.5,79.3 M335.8,84.2c-0.4-0.4-1-0.6-1.7-0.6
				c-0.7,0-1.3,0.2-1.7,0.6c-0.4,0.4-0.7,0.9-0.7,1.6s0.2,1.2,0.6,1.6c0.4,0.4,1,0.6,1.7,0.6c0.7,0,1.3-0.2,1.7-0.6
				c0.4-0.4,0.7-1,0.7-1.6C336.5,85.1,336.2,84.6,335.8,84.2"/>
			<path class="st1" d="M339.3,83.4c0-0.9,0.1-1.8,0.2-2.5s0.4-1.3,0.6-1.7c0.2-0.4,0.5-0.8,0.9-1c0.3-0.3,0.7-0.4,1-0.5
				c0.3-0.1,0.7-0.1,1-0.1c2.5,0,3.7,2,3.7,6c0,1.9-0.3,3.3-1,4.3c-0.6,1-1.5,1.5-2.8,1.5c-1.2,0-2.1-0.5-2.8-1.5
				C339.6,86.8,339.3,85.3,339.3,83.4 M345.3,83.4c0-3.1-0.8-4.6-2.3-4.6c-1.5,0-2.3,1.5-2.3,4.6c0,3.1,0.7,4.7,2.2,4.7
				c0.8,0,1.4-0.4,1.7-1.2C345.1,86.2,345.3,85,345.3,83.4"/>
		</g>
		<g transform="matrix(-.34202 -.93969 .93969 -.34202 274.66 808.11)">
			<path class="st1" d="M267.6,35.6c0.1-2.6,1.3-3.9,3.7-3.9c1.1,0,2,0.3,2.6,0.9c0.7,0.6,1,1.4,1,2.4c0,1.4-0.8,2.5-2.4,3.4
				l-1.6,0.9c-0.7,0.4-1.2,0.7-1.5,1.1c-0.3,0.4-0.5,0.8-0.6,1.2h6V43h-7.6c0.1-1.2,0.3-2.2,0.8-2.9c0.4-0.7,1.2-1.4,2.4-2l1.5-0.8
				c1-0.6,1.5-1.3,1.5-2.2c0-0.6-0.2-1.1-0.6-1.5c-0.4-0.4-1-0.6-1.6-0.6c-1.4,0-2.2,0.9-2.3,2.7L267.6,35.6"/>
			<path class="st1" d="M283.3,31.7V33h-4.7l-0.4,3.2c0.6-0.5,1.3-0.7,2.1-0.7c1.1,0,2,0.4,2.6,1.1c0.7,0.7,1,1.6,1,2.7
				c0,1.2-0.4,2.2-1.1,2.9s-1.7,1.1-2.8,1.1c-0.4,0-0.8,0-1.2-0.1c-0.4-0.1-0.7-0.2-0.9-0.3c-0.2-0.1-0.5-0.3-0.7-0.5
				c-0.2-0.2-0.3-0.4-0.4-0.6c-0.1-0.2-0.2-0.4-0.3-0.6c-0.1-0.3-0.1-0.4-0.2-0.5c0-0.1,0-0.2-0.1-0.4h1.4c0.3,1.3,1.1,1.9,2.3,1.9
				c0.8,0,1.4-0.2,1.8-0.7c0.4-0.5,0.7-1.1,0.7-1.9c0-0.8-0.2-1.5-0.7-2c-0.4-0.5-1.1-0.7-1.8-0.7c-0.4,0-0.8,0.1-1.1,0.2
				c-0.3,0.1-0.6,0.4-1,0.8h-1.3l0.8-6.2H283.3"/>
			<path class="st1" d="M285.3,37.5c0-0.9,0.1-1.8,0.2-2.5c0.2-0.7,0.4-1.3,0.6-1.7c0.2-0.4,0.5-0.8,0.9-1c0.3-0.3,0.7-0.4,1-0.5
				c0.3-0.1,0.7-0.1,1-0.1c2.5,0,3.7,2,3.7,6c0,1.9-0.3,3.3-1,4.3c-0.6,1-1.5,1.5-2.8,1.5c-1.2,0-2.1-0.5-2.8-1.5
				C285.6,40.9,285.3,39.4,285.3,37.5 M291.3,37.5c0-3.1-0.8-4.6-2.3-4.6c-1.5,0-2.3,1.5-2.3,4.6c0,3.1,0.7,4.7,2.2,4.7
				c0.8,0,1.4-0.4,1.7-1.2S291.3,39.1,291.3,37.5"/>
		</g>
		<g transform="matrix(.34202 .93969 -.93969 .34202 645.34 17.888)">
			<path class="st1" d="M334,82.7v1.2c-1.3,1.7-2.3,3.4-3,5c-0.7,1.6-1.3,3.3-1.6,5.2h-1.5c0.4-1.9,1-3.5,1.6-4.9
				c0.7-1.4,1.7-3.1,3-5h-6.1v-1.4H334"/>
			<path class="st1" d="M335.3,88.6c0-0.9,0.1-1.8,0.2-2.5s0.4-1.3,0.6-1.7c0.2-0.4,0.5-0.8,0.9-1c0.3-0.3,0.7-0.4,1-0.5
				c0.3-0.1,0.7-0.1,1-0.1c2.5,0,3.7,2,3.7,6c0,1.9-0.3,3.3-1,4.3c-0.6,1-1.5,1.5-2.8,1.5c-1.2,0-2.1-0.5-2.8-1.5
				C335.6,91.9,335.3,90.5,335.3,88.6 M341.2,88.5c0-3.1-0.8-4.6-2.3-4.6c-1.5,0-2.3,1.5-2.3,4.6c0,3.1,0.7,4.7,2.2,4.7
				c0.8,0,1.4-0.4,1.7-1.2C341.1,91.3,341.2,90.1,341.2,88.5"/>
		</g>
		<g transform="matrix(-.5 -.86603 .86603 -.5 346.08 834.29)">
			<path class="st1" d="M272.5,31.3c0.1-2.6,1.3-3.9,3.7-3.9c1.1,0,2,0.3,2.6,0.9c0.7,0.6,1,1.4,1,2.4c0,1.4-0.8,2.5-2.4,3.4
				l-1.6,0.9c-0.7,0.4-1.2,0.7-1.5,1.1c-0.3,0.4-0.5,0.8-0.6,1.2h6v1.4h-7.6c0.1-1.2,0.3-2.2,0.8-2.9c0.4-0.7,1.2-1.4,2.4-2l1.5-0.8
				c1-0.6,1.5-1.3,1.5-2.2c0-0.6-0.2-1.1-0.6-1.5c-0.4-0.4-1-0.6-1.6-0.6c-1.4,0-2.2,0.9-2.3,2.7L272.5,31.3"/>
			<path class="st1" d="M285.8,35.9H281v-1.5l5.2-7.1h1v7.4h1.7v1.3h-1.7v2.7h-1.4V35.9 M285.8,34.7v-5l-3.6,5H285.8"/>
			<path class="st1" d="M290.1,33.2c0-0.9,0.1-1.8,0.2-2.5c0.2-0.7,0.4-1.3,0.6-1.7c0.2-0.4,0.5-0.8,0.9-1c0.3-0.3,0.7-0.4,1-0.5
				c0.3-0.1,0.7-0.1,1-0.1c2.5,0,3.7,2,3.7,6c0,1.9-0.3,3.3-1,4.3c-0.6,1-1.5,1.5-2.8,1.5c-1.2,0-2.1-0.5-2.8-1.5
				C290.4,36.5,290.1,35.1,290.1,33.2 M296.1,33.1c0-3.1-0.8-4.6-2.3-4.6c-1.5,0-2.3,1.5-2.3,4.6c0,3.1,0.7,4.7,2.2,4.7
				c0.8,0,1.4-0.4,1.7-1.2C295.9,35.9,296.1,34.7,296.1,33.1"/>
		</g>
		<g transform="matrix(.5 .86603 -.86603 .5 573.92 -8.2942)">
			<path class="st1" d="M321.5,93.2c0-1,0.1-1.9,0.3-2.6c0.2-0.8,0.4-1.4,0.7-1.8c0.3-0.4,0.6-0.8,1-1.1c0.4-0.3,0.7-0.5,1.1-0.5
				c0.3-0.1,0.7-0.1,1.1-0.1c0.9,0,1.6,0.3,2.1,0.8c0.6,0.5,0.9,1.2,1.1,2.2h-1.4c-0.1-0.5-0.3-1-0.7-1.3c-0.3-0.3-0.7-0.4-1.2-0.4
				c-0.8,0-1.4,0.4-1.9,1.1c-0.4,0.7-0.6,1.8-0.7,3.2c0.6-0.8,1.5-1.3,2.6-1.3c1,0,1.8,0.3,2.5,1c0.7,0.7,1,1.5,1,2.6
				c0,1.1-0.4,2-1.1,2.8c-0.7,0.7-1.6,1.1-2.7,1.1C322.8,98.7,321.5,96.9,321.5,93.2 M325.4,92.6c-0.7,0-1.3,0.2-1.7,0.7
				c-0.4,0.4-0.7,1-0.7,1.7c0,0.7,0.2,1.3,0.7,1.8c0.4,0.5,1,0.7,1.6,0.7c0.7,0,1.2-0.2,1.6-0.7c0.4-0.5,0.6-1.1,0.6-1.8
				c0-0.8-0.2-1.4-0.6-1.8C326.6,92.8,326.1,92.6,325.4,92.6"/>
			<path class="st1" d="M330.4,92.9c0-0.9,0.1-1.8,0.2-2.5s0.4-1.3,0.6-1.7c0.2-0.4,0.5-0.8,0.9-1c0.3-0.3,0.7-0.4,1-0.5
				c0.3-0.1,0.7-0.1,1-0.1c2.5,0,3.7,2,3.7,6c0,1.9-0.3,3.3-1,4.3c-0.6,1-1.5,1.5-2.8,1.5c-1.2,0-2.1-0.5-2.8-1.5
				C330.7,96.3,330.4,94.8,330.4,92.9 M336.4,92.9c0-3.1-0.8-4.6-2.3-4.6c-1.5,0-2.3,1.5-2.3,4.6c0,3.1,0.7,4.7,2.2,4.7
				c0.8,0,1.4-0.4,1.7-1.2C336.2,95.7,336.4,94.5,336.4,92.9"/>
		</g>
		<g transform="matrix(-.64279 -.76604 .76604 -.64279 420.97 847.68)">
			<path class="st1" d="M278,27.8c0.1-2.6,1.3-3.9,3.7-3.9c1.1,0,2,0.3,2.6,0.9c0.7,0.6,1,1.4,1,2.4c0,1.4-0.8,2.5-2.4,3.4l-1.6,0.9
				c-0.7,0.4-1.2,0.7-1.5,1.1c-0.3,0.4-0.5,0.8-0.6,1.2h6v1.4h-7.6c0.1-1.2,0.3-2.2,0.8-2.9c0.4-0.7,1.2-1.4,2.4-2l1.5-0.8
				c1-0.6,1.5-1.3,1.5-2.2c0-0.6-0.2-1.1-0.6-1.5s-1-0.6-1.6-0.6c-1.4,0-2.2,0.9-2.3,2.7L278,27.8"/>
			<path class="st1" d="M290.4,25.1c-0.8,0-1.4,0.2-1.7,0.7c-0.3,0.4-0.5,1-0.5,1.8h-1.4c0.1-2.4,1.2-3.7,3.6-3.7
				c1.1,0,1.9,0.3,2.5,0.8s0.9,1.3,0.9,2.3c0,1.2-0.5,1.9-1.6,2.4c0.7,0.2,1.2,0.6,1.5,1c0.3,0.4,0.4,1,0.4,1.7
				c0,1.1-0.4,1.9-1.1,2.6c-0.7,0.6-1.6,1-2.8,1c-2.3,0-3.6-1.2-3.7-3.7h1.4c0.1,0.8,0.3,1.4,0.7,1.8s1,0.6,1.7,0.6
				c0.7,0,1.3-0.2,1.7-0.6s0.6-1,0.6-1.7c0-1.4-0.8-2.1-2.4-2.1l-0.6,0h-0.2v-1.2c1,0,1.7-0.1,2.1-0.4c0.4-0.2,0.6-0.7,0.6-1.4
				c0-0.6-0.2-1.1-0.5-1.4C291.5,25.3,291,25.1,290.4,25.1"/>
			<path class="st1" d="M295.7,29.7c0-0.9,0.1-1.8,0.2-2.5s0.4-1.3,0.6-1.7c0.2-0.4,0.5-0.8,0.9-1s0.7-0.4,1-0.5
				c0.3-0.1,0.7-0.1,1-0.1c2.5,0,3.7,2,3.7,6c0,1.9-0.3,3.3-1,4.3c-0.6,1-1.5,1.5-2.8,1.5c-1.2,0-2.1-0.5-2.8-1.5
				C296,33.1,295.7,31.6,295.7,29.7 M301.7,29.7c0-3.1-0.8-4.6-2.3-4.6c-1.5,0-2.3,1.5-2.3,4.6c0,3.1,0.7,4.7,2.2,4.7
				c0.8,0,1.4-0.4,1.7-1.2S301.7,31.3,301.7,29.7"/>
		</g>
		<g transform="matrix(.64279 .76604 -.76604 .64279 499.03 -21.675)">
			<path class="st1" d="M322.9,90.5v1.4l-4.7,0l-0.4,3.2c0.6-0.5,1.3-0.7,2.1-0.7c1.1,0,2,0.4,2.6,1.1c0.7,0.7,1,1.6,1,2.7
				c0,1.2-0.4,2.2-1.1,2.9c-0.7,0.8-1.7,1.1-2.8,1.1c-0.4,0-0.8,0-1.2-0.1c-0.4-0.1-0.7-0.2-0.9-0.3c-0.2-0.1-0.5-0.3-0.7-0.5
				c-0.2-0.2-0.3-0.4-0.4-0.6c-0.1-0.2-0.2-0.4-0.3-0.6c-0.1-0.3-0.1-0.4-0.2-0.5c0-0.1,0-0.2-0.1-0.4h1.4c0.3,1.3,1.1,1.9,2.3,1.9
				c0.8,0,1.4-0.2,1.8-0.7c0.4-0.5,0.7-1.1,0.7-1.9c0-0.8-0.2-1.5-0.7-2c-0.4-0.5-1.1-0.7-1.8-0.7c-0.4,0-0.8,0.1-1.1,0.2
				c-0.3,0.1-0.6,0.4-1,0.8h-1.3l0.8-6.2H322.9"/>
			<path class="st1" d="M324.9,96.3c0-0.9,0.1-1.8,0.2-2.5s0.4-1.3,0.6-1.7c0.2-0.4,0.5-0.8,0.9-1s0.7-0.4,1-0.5
				c0.3-0.1,0.7-0.1,1-0.1c2.5,0,3.7,2,3.7,6c0,1.9-0.3,3.3-1,4.3c-0.6,1-1.5,1.5-2.8,1.5c-1.2,0-2.1-0.5-2.8-1.5
				C325.2,99.7,324.9,98.2,324.9,96.3 M330.9,96.3c0-3.1-0.8-4.6-2.3-4.6c-1.5,0-2.3,1.5-2.3,4.6c0,3.1,0.7,4.7,2.2,4.7
				c0.8,0,1.4-0.4,1.7-1.2C330.7,99.1,330.9,97.9,330.9,96.3"/>
		</g>
		<g transform="matrix(-.76604 -.64279 .64279 -.76604 497.04 847.85)">
			<path class="st1" d="M284,25.4c0.1-2.6,1.3-3.9,3.7-3.9c1.1,0,2,0.3,2.6,0.9c0.7,0.6,1,1.4,1,2.4c0,1.4-0.8,2.5-2.4,3.4l-1.6,0.9
				c-0.7,0.4-1.2,0.7-1.5,1.1s-0.5,0.8-0.6,1.2h6v1.4h-7.6c0.1-1.2,0.3-2.2,0.8-2.9c0.4-0.7,1.2-1.4,2.4-2l1.5-0.8
				c1-0.6,1.5-1.3,1.5-2.2c0-0.6-0.2-1.1-0.6-1.5s-1-0.6-1.6-0.6c-1.4,0-2.2,0.9-2.3,2.7L284,25.4"/>
			<path class="st1" d="M292.9,25.4c0.1-2.6,1.3-3.9,3.7-3.9c1.1,0,2,0.3,2.6,0.9c0.7,0.6,1,1.4,1,2.4c0,1.4-0.8,2.5-2.4,3.4
				l-1.6,0.9c-0.7,0.4-1.2,0.7-1.5,1.1s-0.5,0.8-0.6,1.2h6v1.4h-7.6c0.1-1.2,0.3-2.2,0.8-2.9c0.4-0.7,1.2-1.4,2.4-2l1.5-0.8
				c1-0.6,1.5-1.3,1.5-2.2c0-0.6-0.2-1.1-0.6-1.5s-1-0.6-1.6-0.6c-1.4,0-2.2,0.9-2.3,2.7L292.9,25.4"/>
			<path class="st1" d="M301.7,27.3c0-0.9,0.1-1.8,0.2-2.5c0.2-0.7,0.4-1.3,0.6-1.7c0.2-0.4,0.5-0.8,0.9-1s0.7-0.4,1-0.5
				c0.3-0.1,0.7-0.1,1-0.1c2.5,0,3.7,2,3.7,6c0,1.9-0.3,3.3-1,4.3c-0.6,1-1.5,1.5-2.8,1.5c-1.2,0-2.1-0.5-2.8-1.5
				C302,30.7,301.7,29.2,301.7,27.3 M307.7,27.3c0-3.1-0.8-4.6-2.3-4.6c-1.5,0-2.3,1.5-2.3,4.6c0,3.1,0.7,4.7,2.2,4.7
				c0.8,0,1.4-0.4,1.7-1.2C307.5,30.1,307.7,28.9,307.7,27.3"/>
		</g>
		<g transform="matrix(.76604 .64279 -.64279 .76604 422.96 -21.849)">
			<path class="st1" d="M314.5,101.5h-4.8V100l5.2-7.1h1v7.4h1.7v1.3h-1.7v2.7h-1.4V101.5 M314.5,100.2v-5l-3.6,5H314.5"/>
			<path class="st1" d="M318.8,98.7c0-0.9,0.1-1.8,0.2-2.5s0.4-1.3,0.6-1.7c0.2-0.4,0.5-0.8,0.9-1c0.3-0.3,0.7-0.4,1-0.5
				c0.3-0.1,0.7-0.1,1-0.1c2.5,0,3.7,2,3.7,6c0,1.9-0.3,3.3-1,4.3c-0.6,1-1.5,1.5-2.8,1.5c-1.2,0-2.1-0.5-2.8-1.5
				C319.2,102.1,318.8,100.6,318.8,98.7 M324.8,98.7c0-3.1-0.8-4.6-2.3-4.6c-1.5,0-2.3,1.5-2.3,4.6c0,3.1,0.7,4.7,2.2,4.7
				c0.8,0,1.4-0.4,1.7-1.2C324.6,101.5,324.8,100.3,324.8,98.7"/>
		</g>
		<g transform="matrix(-.86603 -.5 .5 -.86603 571.99 834.81)">
			<path class="st1" d="M290.4,24.1c0.1-2.6,1.3-3.9,3.7-3.9c1.1,0,2,0.3,2.6,0.9c0.7,0.6,1,1.4,1,2.4c0,1.4-0.8,2.5-2.4,3.4
				l-1.6,0.9c-0.7,0.4-1.2,0.7-1.5,1.1c-0.3,0.4-0.5,0.8-0.6,1.2h6v1.4h-7.6c0.1-1.2,0.3-2.2,0.8-2.9c0.4-0.7,1.2-1.4,2.4-2l1.5-0.8
				c1-0.6,1.5-1.3,1.5-2.2c0-0.6-0.2-1.1-0.6-1.5c-0.4-0.4-1-0.6-1.6-0.6c-1.4,0-2.2,0.9-2.3,2.7L290.4,24.1"/>
			<path class="st1" d="M302.6,23.4h-2.5v-1c1.1-0.1,1.8-0.3,2.1-0.6c0.3-0.2,0.6-0.8,0.9-1.7h0.9v11.3h-1.4L302.6,23.4"/>
			<path class="st1" d="M308.1,26c0-0.9,0.1-1.8,0.2-2.5c0.2-0.7,0.4-1.3,0.6-1.7c0.2-0.4,0.5-0.8,0.9-1c0.3-0.3,0.7-0.4,1-0.5
				c0.3-0.1,0.7-0.1,1-0.1c2.5,0,3.7,2,3.7,6c0,1.9-0.3,3.3-1,4.3c-0.6,1-1.5,1.5-2.8,1.5c-1.2,0-2.1-0.5-2.8-1.5
				C308.4,29.4,308.1,27.9,308.1,26 M314.1,26c0-3.1-0.8-4.6-2.3-4.6c-1.5,0-2.3,1.5-2.3,4.6c0,3.1,0.7,4.7,2.2,4.7
				c0.8,0,1.4-0.4,1.7-1.2S314.1,27.6,314.1,26"/>
		</g>
		<g transform="matrix(.86603 .5 -.5 .86603 348.01 -8.8103)">
			<path class="st1" d="M307.2,95.4c-0.8,0-1.4,0.2-1.7,0.7c-0.3,0.4-0.5,1-0.5,1.8h-1.4c0.1-2.4,1.2-3.7,3.6-3.7
				c1.1,0,1.9,0.3,2.5,0.8s0.9,1.3,0.9,2.3c0,1.2-0.5,1.9-1.6,2.4c0.7,0.2,1.2,0.6,1.5,1c0.3,0.4,0.4,1,0.4,1.7
				c0,1.1-0.4,1.9-1.1,2.6c-0.7,0.6-1.6,1-2.8,1c-2.3,0-3.6-1.2-3.7-3.7h1.4c0.1,0.8,0.3,1.4,0.7,1.8c0.4,0.4,1,0.6,1.7,0.6
				c0.7,0,1.3-0.2,1.7-0.6c0.4-0.4,0.6-1,0.6-1.7c0-1.4-0.8-2.1-2.4-2.1l-0.6,0h-0.2v-1.2c1,0,1.7-0.1,2.1-0.4
				c0.4-0.2,0.6-0.7,0.6-1.4c0-0.6-0.2-1.1-0.5-1.4C308.3,95.6,307.8,95.4,307.2,95.4"/>
			<path class="st1" d="M312.5,100.1c0-0.9,0.1-1.8,0.2-2.5c0.2-0.7,0.4-1.3,0.6-1.7c0.2-0.4,0.5-0.8,0.9-1c0.3-0.3,0.7-0.4,1-0.5
				c0.3-0.1,0.7-0.1,1-0.1c2.5,0,3.7,2,3.7,6c0,1.9-0.3,3.3-1,4.3c-0.6,1-1.5,1.5-2.8,1.5c-1.2,0-2.1-0.5-2.8-1.5
				C312.8,103.4,312.5,102,312.5,100.1 M318.5,100c0-3.1-0.8-4.6-2.3-4.6c-1.5,0-2.3,1.5-2.3,4.6c0,3.1,0.7,4.7,2.2,4.7
				c0.8,0,1.4-0.4,1.7-1.2C318.3,102.8,318.5,101.6,318.5,100"/>
		</g>
		<g transform="matrix(-.93969 -.34202 .34202 -.93969 643.54 808.95)">
			<path class="st1" d="M296.9,23.9c0.1-2.6,1.3-3.9,3.7-3.9c1.1,0,2,0.3,2.6,0.9c0.7,0.6,1,1.4,1,2.4c0,1.4-0.8,2.5-2.4,3.4
				l-1.6,0.9c-0.7,0.4-1.2,0.7-1.5,1.1c-0.3,0.4-0.5,0.8-0.6,1.2h6v1.4h-7.6c0.1-1.2,0.3-2.2,0.8-2.9c0.4-0.7,1.2-1.4,2.4-2l1.5-0.8
				c1-0.6,1.5-1.3,1.5-2.2c0-0.6-0.2-1.1-0.6-1.5c-0.4-0.4-1-0.6-1.6-0.6c-1.4,0-2.2,0.9-2.3,2.7L296.9,23.9"/>
			<path class="st1" d="M305.7,25.8c0-0.9,0.1-1.8,0.2-2.5c0.2-0.7,0.4-1.3,0.6-1.7c0.2-0.4,0.5-0.8,0.9-1c0.3-0.3,0.7-0.4,1-0.5
				c0.3-0.1,0.7-0.1,1-0.1c2.5,0,3.7,2,3.7,6c0,1.9-0.3,3.3-1,4.3c-0.6,1-1.5,1.5-2.8,1.5c-1.2,0-2.1-0.5-2.8-1.5
				C306,29.1,305.7,27.7,305.7,25.8 M311.7,25.8c0-3.1-0.8-4.6-2.3-4.6c-1.5,0-2.3,1.5-2.3,4.6c0,3.1,0.7,4.7,2.2,4.7
				c0.8,0,1.4-0.4,1.7-1.2C311.5,28.6,311.7,27.4,311.7,25.8"/>
			<path class="st1" d="M314.6,25.8c0-0.9,0.1-1.8,0.2-2.5c0.2-0.7,0.4-1.3,0.6-1.7c0.2-0.4,0.5-0.8,0.9-1s0.7-0.4,1-0.5
				c0.3-0.1,0.7-0.1,1-0.1c2.5,0,3.7,2,3.7,6c0,1.9-0.3,3.3-1,4.3c-0.6,1-1.5,1.5-2.8,1.5c-1.2,0-2.1-0.5-2.8-1.5
				C314.9,29.1,314.6,27.7,314.6,25.8 M320.6,25.8c0-3.1-0.8-4.6-2.3-4.6c-1.5,0-2.3,1.5-2.3,4.6c0,3.1,0.7,4.7,2.2,4.7
				c0.8,0,1.4-0.4,1.7-1.2S320.6,27.4,320.6,25.8"/>
		</g>
		<g transform="matrix(.93969 .34202 -.34202 .93969 276.46 17.045)">
			<path class="st1" d="M297.2,98.4c0.1-2.6,1.3-3.9,3.7-3.9c1.1,0,2,0.3,2.6,0.9c0.7,0.6,1,1.4,1,2.4c0,1.4-0.8,2.5-2.4,3.4
				l-1.6,0.9c-0.7,0.4-1.2,0.7-1.5,1.1c-0.3,0.4-0.5,0.8-0.6,1.2h6v1.4h-7.6c0.1-1.2,0.3-2.2,0.8-2.9c0.4-0.7,1.2-1.4,2.4-2l1.5-0.8
				c1-0.6,1.5-1.3,1.5-2.2c0-0.6-0.2-1.1-0.6-1.5c-0.4-0.4-1-0.6-1.6-0.6c-1.4,0-2.2,0.9-2.3,2.7L297.2,98.4"/>
			<path class="st1" d="M306,100.3c0-0.9,0.1-1.8,0.2-2.5s0.4-1.3,0.6-1.7c0.2-0.4,0.5-0.8,0.9-1c0.3-0.3,0.7-0.4,1-0.5
				c0.3-0.1,0.7-0.1,1-0.1c2.5,0,3.7,2,3.7,6c0,1.9-0.3,3.3-1,4.3c-0.6,1-1.5,1.5-2.8,1.5c-1.2,0-2.1-0.5-2.8-1.5
				C306.3,103.6,306,102.2,306,100.3 M312,100.2c0-3.1-0.8-4.6-2.3-4.6c-1.5,0-2.3,1.5-2.3,4.6c0,3.1,0.7,4.7,2.2,4.7
				c0.8,0,1.4-0.4,1.7-1.2C311.8,103,312,101.9,312,100.2"/>
		</g>
		<g transform="matrix(-.98481 -.17365 .17365 -.98481 709.51 771.07)">
			<path class="st1" d="M306.7,24.1h-2.5v-1c1.1-0.1,1.8-0.3,2.1-0.6c0.3-0.2,0.6-0.8,0.9-1.7h0.9v11.3h-1.4L306.7,24.1"/>
			<path class="st1" d="M319.6,26.4c0,1-0.1,1.9-0.3,2.7c-0.2,0.8-0.4,1.4-0.7,1.8c-0.3,0.4-0.6,0.8-1,1.1c-0.4,0.3-0.7,0.4-1.1,0.5
				c-0.3,0.1-0.7,0.1-1.1,0.1c-0.9,0-1.6-0.3-2.2-0.8c-0.6-0.5-0.9-1.2-1.1-2.2h1.4c0.1,0.5,0.3,1,0.7,1.3c0.3,0.3,0.7,0.4,1.2,0.4
				c0.8,0,1.4-0.4,1.9-1.1c0.4-0.7,0.7-1.8,0.7-3.2c-0.7,0.8-1.6,1.3-2.6,1.3c-1,0-1.9-0.3-2.5-1c-0.7-0.7-1-1.5-1-2.6
				c0-1.1,0.3-2,1-2.7c0.7-0.7,1.6-1.1,2.7-1.1C318.3,20.8,319.6,22.7,319.6,26.4 M315.7,22.1c-0.7,0-1.2,0.2-1.6,0.7
				s-0.6,1.1-0.6,1.8c0,0.8,0.2,1.4,0.6,1.8c0.4,0.4,0.9,0.7,1.6,0.7c0.7,0,1.2-0.2,1.7-0.7c0.4-0.4,0.7-1,0.7-1.7
				c0-0.7-0.2-1.3-0.7-1.8C316.9,22.3,316.4,22.1,315.7,22.1"/>
			<path class="st1" d="M321,26.7c0-0.9,0.1-1.8,0.2-2.5s0.4-1.3,0.6-1.7c0.2-0.4,0.5-0.8,0.9-1s0.7-0.4,1-0.5
				c0.3-0.1,0.7-0.1,1-0.1c2.5,0,3.7,2,3.7,6c0,1.9-0.3,3.3-1,4.3c-0.6,1-1.5,1.5-2.8,1.5c-1.2,0-2.1-0.5-2.8-1.5
				C321.3,30.1,321,28.6,321,26.7 M327,26.7c0-3.1-0.8-4.6-2.3-4.6s-2.3,1.5-2.3,4.6c0,3.1,0.7,4.7,2.2,4.7c0.8,0,1.4-0.4,1.7-1.2
				C326.8,29.5,327,28.3,327,26.7"/>
		</g>
		<g transform="matrix(.98481 .17365 -.17365 .98481 210.49 54.931)">
			<path class="st1" d="M294.1,96.8h-2.5v-1c1.1-0.1,1.8-0.3,2.1-0.6c0.3-0.2,0.6-0.8,0.9-1.7h0.9v11.3h-1.4L294.1,96.8"/>
			<path class="st1" d="M299.6,99.4c0-0.9,0.1-1.8,0.2-2.5c0.2-0.7,0.4-1.3,0.6-1.7c0.2-0.4,0.5-0.8,0.9-1c0.3-0.3,0.7-0.4,1-0.5
				c0.3-0.1,0.7-0.1,1-0.1c2.5,0,3.7,2,3.7,6c0,1.9-0.3,3.3-1,4.3c-0.6,1-1.5,1.5-2.8,1.5c-1.2,0-2.1-0.5-2.8-1.5
				C299.9,102.7,299.6,101.3,299.6,99.4 M305.5,99.3c0-3.1-0.8-4.6-2.3-4.6c-1.5,0-2.3,1.5-2.3,4.6c0,3.1,0.7,4.7,2.2,4.7
				c0.8,0,1.4-0.4,1.7-1.2C305.4,102.1,305.5,100.9,305.5,99.3"/>
		</g>
	</g>
	<path d="M490.8,184.6l-1.7,9.8l1.7,0.3l1.7-9.8L490.8,184.6L490.8,184.6z"/>
	<path class="st0" d="M703.1,447.3c0,142.4-115.4,257.8-257.8,257.8S187.6,589.7,187.6,447.3S303,189.5,445.3,189.5
		S703.1,304.9,703.1,447.3z"/>
	<g transform="matrix(.99939 -.0349 .0349 .99939 64.439 -253.92)">
		<path d="M355.3,447.5v10h1.8v-10H355.3z"/>
		<path d="M357.1,980.7v-10h-1.8v10H357.1z"/>
	</g>
	<g transform="matrix(.99756 -.06976 .06976 .99756 41.405 -239.71)">
		<path d="M354.1,446.9v10h1.8v-10H354.1z"/>
		<path d="M355.9,980.1v-10h-1.8v10H355.9z"/>
	</g>
	<g transform="matrix(.99452 -.10453 .10453 .99452 18.881 -224.7)">
		<path d="M353,446.3v10h1.8v-10H353z"/>
		<path d="M354.7,979.5v-10H353v10H354.7z"/>
	</g>
	<g transform="matrix(.99027 -.13917 .13917 .99027 -3.1062 -208.92)">
		<path d="M351.9,445.6v10h1.8v-10H351.9z"/>
		<path d="M353.6,978.8v-10h-1.8v10H353.6z"/>
	</g>
	<g transform="matrix(.97815 -.20791 .20791 .97815 -45.361 -175.1)">
		<path d="M349.7,444.2v10h1.8v-10H349.7z"/>
		<path d="M351.4,977.4v-10h-1.8v10H351.4z"/>
	</g>
	<g transform="matrix(.9703 -.24192 .24192 .9703 -65.577 -157.1)">
		<path d="M348.6,443.5v10h1.8v-10H348.6z"/>
		<path d="M350.4,976.6v-10h-1.8v10H350.4z"/>
	</g>
	<g transform="matrix(.96126 -.27564 .27564 .96126 -85.153 -138.41)">
		<path d="M347.6,442.7v10h1.8v-10H347.6z"/>
		<path d="M349.4,975.8v-10h-1.8v10H349.4z"/>
	</g>
	<g transform="matrix(.95106 -.30902 .30902 .95106 -104.07 -119.05)">
		<path d="M346.6,441.8v10h1.8v-10H346.6z"/>
		<path d="M348.4,975v-10h-1.8v10H348.4z"/>
	</g>
	<g transform="matrix(.92718 -.37461 .37461 .92718 -139.81 -78.409)">
		<path d="M344.7,440v10h1.8v-10H344.7z"/>
		<path d="M346.5,973.2v-10h-1.8v10H346.5z"/>
	</g>
	<g transform="matrix(.91355 -.40674 .40674 .91355 -156.59 -57.176)">
		<path d="M343.8,439.1v10h1.8v-10H343.8z"/>
		<path d="M345.6,972.3v-10h-1.8v10H345.6z"/>
	</g>
	<g transform="matrix(.89879 -.43837 .43837 .89879 -172.62 -35.371)">
		<path d="M342.9,438.1v10h1.8v-10H342.9z"/>
		<path d="M344.7,971.3v-10h-1.8v10H344.7z"/>
	</g>
	<g transform="matrix(.88295 -.46947 .46947 .88295 -187.89 -13.02)">
		<path d="M342.1,437.1v10h1.8v-10H342.1z"/>
		<path d="M343.9,970.3v-10h-1.8v10H343.9z"/>
	</g>
	<g transform="matrix(.84805 -.52992 .52992 .84805 -216.03 33.212)">
		<path d="M340.5,435v10h1.8v-10H340.5z"/>
		<path d="M342.3,968.2v-10h-1.8v10H342.3z"/>
	</g>
	<g transform="matrix(.82904 -.55919 .55919 .82904 -228.87 57.036)">
		<path d="M339.8,434v10h1.8v-10H339.8z"/>
		<path d="M341.6,967.1v-10h-1.8v10H341.6z"/>
	</g>
	<g transform="matrix(.80902 -.58779 .58779 .80902 -240.87 81.294)">
		<path d="M339.1,432.8v10h1.8v-10H339.1z"/>
		<path d="M340.9,966v-10h-1.8v10H340.9z"/>
	</g>
	<g transform="matrix(.78801 -.61566 .61566 .78801 -252.02 105.96)">
		<path d="M338.5,431.7v10h1.8v-10H338.5z"/>
		<path d="M340.2,964.9v-10h-1.8v10H340.2z"/>
	</g>
	<g transform="matrix(.74314 -.66913 .66913 .74314 -271.7 156.37)">
		<path d="M337.3,429.4v10h1.8v-10H337.3z"/>
		<path d="M339.1,962.6v-10h-1.8v10H339.1z"/>
	</g>
	<g transform="matrix(.71934 -.69466 .69466 .71934 -280.21 182.06)">
		<path d="M336.8,428.2v10h1.8v-10H336.8z"/>
		<path d="M338.5,961.4v-10h-1.8v10H338.5z"/>
	</g>
	<g transform="matrix(.69466 -.71934 .71934 .69466 -287.82 208.04)">
		<path d="M336.3,427v10h1.8v-10H336.3z"/>
		<path d="M338.1,960.2v-10h-1.8v10H338.1z"/>
	</g>
	<g transform="matrix(.66913 -.74314 .74314 .66913 -294.52 234.26)">
		<path d="M335.9,425.8l0,10h1.8v-10H335.9z"/>
		<path d="M337.6,958.9v-10h-1.8v10H337.6z"/>
	</g>
	<g transform="matrix(.61566 -.78801 .78801 .61566 -305.15 287.33)">
		<path d="M335.1,423.3v10h1.8v-10H335.1z"/>
		<path d="M336.9,956.4v-10h-1.8v10H336.9z"/>
	</g>
	<g transform="matrix(.58779 -.80902 .80902 .58779 -309.07 314.11)">
		<path d="M334.8,422v10h1.8v-10H334.8z"/>
		<path d="M336.5,955.2v-10h-1.8v10H336.5z"/>
	</g>
	<g transform="matrix(.55919 -.82904 .82904 .55919 -312.05 341.01)">
		<path d="M334.5,420.7v10h1.8v-10H334.5z"/>
		<path d="M336.3,953.9v-10h-1.8v10H336.3z"/>
	</g>
	<g transform="matrix(.52992 -.84805 .84805 .52992 -314.1 368)">
		<path d="M334.3,419.5v10h1.8v-10H334.3z"/>
		<path d="M336.1,952.6v-10h-1.8v10H336.1z"/>
	</g>
	<g transform="matrix(.46947 -.88295 .88295 .46947 -315.35 422.11)">
		<path d="M334,416.9v10h1.8v-10H334z"/>
		<path d="M335.7,950v-10H334v10H335.7z"/>
	</g>
	<g transform="matrix(.43837 -.89879 .89879 .43837 -314.56 449.16)">
		<path d="M333.9,415.6v10h1.8v-10H333.9z"/>
		<path d="M335.7,948.7v-10h-1.8v10H335.7z"/>
	</g>
	<g transform="matrix(.40674 -.91355 .91355 .40674 -312.83 476.17)">
		<path d="M333.9,414.3v10h1.8v-10H333.9z"/>
		<path d="M335.6,947.4v-10h-1.8v10H335.6z"/>
	</g>
	<g transform="matrix(.37461 -.92718 .92718 .37461 -310.15 503.1)">
		<path d="M333.9,413v10h1.8v-10H333.9z"/>
		<path d="M335.6,946.1v-10h-1.8v10H335.6z"/>
	</g>
	<g transform="matrix(.30902 -.95106 .95106 .30902 -301.99 556.61)">
		<path d="M334,410.4v10h1.8v-10H334z"/>
		<path d="M335.8,943.5v-10H334v10H335.8z"/>
	</g>
	<g transform="matrix(.27564 -.96126 .96126 .27564 -296.51 583.11)">
		<path d="M334.2,409.1v10h1.8v-10H334.2z"/>
		<path d="M335.9,942.2v-10h-1.8v10H335.9z"/>
	</g>
	<g transform="matrix(.24192 -.9703 .9703 .24192 -290.11 609.41)">
		<path d="M334.3,407.8v10h1.8v-10H334.3z"/>
		<path d="M336.1,941v-10h-1.8v10H336.1z"/>
	</g>
	<g transform="matrix(.20791 -.97815 .97815 .20791 -282.8 635.47)">
		<path d="M334.6,406.5v10h1.8v-10H334.6z"/>
		<path d="M336.3,939.7v-10h-1.8v10H336.3z"/>
	</g>
	<g transform="matrix(.13917 -.99027 .99027 .13917 -265.48 686.74)">
		<path d="M335.2,404v10h1.8v-10H335.2z"/>
		<path d="M336.9,937.1v-10h-1.8v10H336.9z"/>
	</g>
	<g transform="matrix(.10453 -.99452 .99452 .10453 -255.48 711.89)">
		<path d="M335.5,402.7v10h1.8v-10H335.5z"/>
		<path d="M337.3,935.9v-10h-1.8v10H337.3z"/>
	</g>
	<g transform="matrix(.06976 -.99756 .99756 .06976 -244.61 736.68)">
		<path d="M335.9,401.5v10h1.8v-10H335.9z"/>
		<path d="M337.7,934.6v-10h-1.8v10H337.7z"/>
	</g>
	<g transform="matrix(.0349 -.99939 .99939 .0349 -232.89 761.08)">
		<path d="M336.4,400.3v10h1.8v-10H336.4z"/>
		<path d="M338.1,933.4v-10h-1.8v10H338.1z"/>
	</g>
	<g transform="matrix(-.0349 -.99939 .99939 -.0349 -206.92 808.56)">
		<path d="M337.4,397.9v10h1.8v-10H337.4z"/>
		<path d="M339.2,931v-10h-1.8v10H339.2z"/>
	</g>
	<g transform="matrix(-.06976 -.99756 .99756 -.06976 -192.71 831.6)">
		<path d="M338,396.7v10h1.8v-10H338z"/>
		<path d="M339.7,929.9v-10H338v10H339.7z"/>
	</g>
	<g transform="matrix(-.10453 -.99452 .99452 -.10453 -177.7 854.12)">
		<path d="M338.6,395.5v10h1.8v-10H338.6z"/>
		<path d="M340.3,928.7v-10h-1.8v10H340.3z"/>
	</g>
	<g transform="matrix(-.13917 -.99027 .99027 -.13917 -161.92 876.11)">
		<path d="M339.2,394.4v10h1.8v-10H339.2z"/>
		<path d="M341,927.6v-10h-1.8v10H341z"/>
	</g>
	<g transform="matrix(-.20791 -.97815 .97815 -.20791 -128.1 918.36)">
		<path d="M340.7,392.2v10h1.8v-10H340.7z"/>
		<path d="M342.4,925.4v-10h-1.8v10H342.4z"/>
	</g>
	<g transform="matrix(-.24192 -.9703 .9703 -.24192 -110.1 938.58)">
		<path d="M341.4,391.2v10h1.8v-10H341.4z"/>
		<path d="M343.2,924.4v-10h-1.8v10H343.2z"/>
	</g>
	<g transform="matrix(-.27564 -.96126 .96126 -.27564 -91.413 958.15)">
		<path d="M342.3,390.2v10h1.8v-10H342.3z"/>
		<path d="M344,923.3v-10h-1.8v10H344z"/>
	</g>
	<g transform="matrix(-.30902 -.95106 .95106 -.30902 -72.052 977.07)">
		<path d="M343.1,389.2v10h1.8v-10H343.1z"/>
		<path d="M344.8,922.3v-10h-1.8v10H344.8z"/>
	</g>
	<g transform="matrix(-.37461 -.92718 .92718 -.37461 -31.409 1012.8)">
		<path d="M344.9,387.3v10h1.8v-10H344.9z"/>
		<path d="M346.6,920.4v-10h-1.8v10H346.6z"/>
	</g>
	<g transform="matrix(-.40674 -.91355 .91355 -.40674 -10.176 1029.6)">
		<path d="M345.8,386.4v10h1.8v-10H345.8z"/>
		<path d="M347.6,919.5v-10h-1.8v10H347.6z"/>
	</g>
	<g transform="matrix(-.43837 -.89879 .89879 -.43837 11.629 1045.6)">
		<path d="M346.8,385.5v10h1.8v-10H346.8z"/>
		<path d="M348.5,918.7v-10h-1.8v10H348.5z"/>
	</g>
	<g transform="matrix(-.46947 -.88295 .88295 -.46947 33.98 1060.9)">
		<path d="M347.8,384.7v10h1.8v-10H347.8z"/>
		<path d="M349.5,917.8v-10h-1.8v10H349.5z"/>
	</g>
	<g transform="matrix(-.52992 -.84805 .84805 -.52992 80.212 1089)">
		<path d="M349.9,383.1v10h1.8v-10H349.9z"/>
		<path d="M351.6,916.3v-10h-1.8v10H351.6z"/>
	</g>
	<g transform="matrix(-.55919 -.82904 .82904 -.55919 104.04 1101.9)">
		<path d="M350.9,382.4v10h1.8v-10H350.9z"/>
		<path d="M352.7,915.5v-10h-1.8v10H352.7z"/>
	</g>
	<g transform="matrix(-.58779 -.80902 .80902 -.58779 128.29 1113.9)">
		<path d="M352,381.7v10h1.8v-10H352z"/>
		<path d="M353.8,914.9v-10H352v10H353.8z"/>
	</g>
	<g transform="matrix(-.61566 -.78801 .78801 -.61566 152.96 1125)">
		<path d="M353.2,381.1v10h1.8l0-10H353.2z"/>
		<path d="M354.9,914.2v-10h-1.8v10H354.9z"/>
	</g>
	<g transform="matrix(-.66913 -.74314 .74314 -.66913 203.37 1144.7)">
		<path d="M355.5,379.9v10h1.8v-10H355.5z"/>
		<path d="M357.3,913v-10h-1.8v10H357.3z"/>
	</g>
	<g transform="matrix(-.69466 -.71934 .71934 -.69466 229.06 1153.2)">
		<path d="M356.7,379.3v10h1.8v-10H356.7z"/>
		<path d="M358.4,912.5v-10h-1.8v10H358.4z"/>
	</g>
	<g transform="matrix(-.71934 -.69466 .69466 -.71934 255.04 1160.8)">
		<path d="M357.9,378.9v10h1.8v-10H357.9z"/>
		<path d="M359.7,912v-10h-1.8v10H359.7z"/>
	</g>
	<g transform="matrix(-.74314 -.66913 .66913 -.74314 281.26 1167.5)">
		<path d="M359.1,378.4v10h1.8v-10H359.1z"/>
		<path d="M360.9,911.6v-10h-1.8v10H360.9z"/>
	</g>
	<g transform="matrix(-.78801 -.61566 .61566 -.78801 334.33 1178.2)">
		<path d="M361.6,377.7v10h1.8v-10H361.6z"/>
		<path d="M363.4,910.8v-10h-1.8v10H363.4z"/>
	</g>
	<g transform="matrix(-.80902 -.58779 .58779 -.80902 361.11 1182.1)">
		<path d="M362.9,377.3v10h1.8v-10H362.9z"/>
		<path d="M364.6,910.5v-10h-1.8v10H364.6z"/>
	</g>
	<g transform="matrix(-.82904 -.55919 .55919 -.82904 388.01 1185.1)">
		<path d="M364.2,377.1v10h1.8v-10H364.2z"/>
		<path d="M365.9,910.2v-10h-1.8v10H365.9z"/>
	</g>
	<g transform="matrix(-.84805 -.52992 .52992 -.84805 415 1187.1)">
		<path d="M365.4,376.9v10h1.8v-10H365.4z"/>
		<path d="M367.2,910v-10h-1.8v10H367.2z"/>
	</g>
	<g transform="matrix(-.88295 -.46947 .46947 -.88295 469.11 1188.3)">
		<path d="M368,376.6v10h1.8v-10H368z"/>
		<path d="M369.8,909.7v-10H368v10H369.8z"/>
	</g>
	<g transform="matrix(-.89879 -.43837 .43837 -.89879 496.16 1187.6)">
		<path d="M369.3,376.5v10h1.8v-10H369.3z"/>
		<path d="M371.1,909.6v-10h-1.8v10H371.1z"/>
	</g>
	<g transform="matrix(-.91355 -.40674 .40674 -.91355 523.17 1185.8)">
		<path d="M370.6,376.4v10h1.8v-10H370.6z"/>
		<path d="M372.4,909.6v-10h-1.8v10H372.4z"/>
	</g>
	<g transform="matrix(-.92718 -.37461 .37461 -.92718 550.1 1183.1)">
		<path d="M371.9,376.4v10h1.8v-10H371.9z"/>
		<path d="M373.7,909.6v-10h-1.8v10H373.7z"/>
	</g>
	<g transform="matrix(-.95106 -.30902 .30902 -.95106 603.61 1175)">
		<path d="M374.5,376.6v10h1.8v-10H374.5z"/>
		<path d="M376.3,909.7v-10h-1.8v10H376.3z"/>
	</g>
	<g transform="matrix(-.96126 -.27564 .27564 -.96126 630.11 1169.5)">
		<path d="M375.8,376.7v10h1.8v-10H375.8z"/>
		<path d="M377.6,909.9v-10h-1.8l0,10H377.6z"/>
	</g>
	<g transform="matrix(-.9703 -.24192 .24192 -.9703 656.41 1163.1)">
		<path d="M377.1,376.9v10h1.8v-10H377.1z"/>
		<path d="M378.9,910.1v-10h-1.8v10H378.9z"/>
	</g>
	<g transform="matrix(-.97815 -.20791 .20791 -.97815 682.47 1155.8)">
		<path d="M378.4,377.1v10h1.8v-10H378.4z"/>
		<path d="M380.1,910.3v-10h-1.8v10H380.1z"/>
	</g>
	<g transform="matrix(-.99027 -.13917 .13917 -.99027 733.74 1138.5)">
		<path d="M380.9,377.7v10h1.8v-10H380.9z"/>
		<path d="M382.7,910.9v-10h-1.8v10H382.7z"/>
	</g>
	<g transform="matrix(-.99452 -.10453 .10453 -.99452 758.89 1128.5)">
		<path d="M382.2,378.1v10h1.8v-10H382.2z"/>
		<path d="M383.9,911.2v-10h-1.8v10H383.9z"/>
	</g>
	<g transform="matrix(-.99756 -.06976 .06976 -.99756 783.68 1117.6)">
		<path d="M383.4,378.5v10h1.8v-10H383.4z"/>
		<path d="M385.2,911.7v-10h-1.8v10H385.2z"/>
	</g>
	<g transform="matrix(-.99939 -.0349 .0349 -.99939 808.08 1105.9)">
		<path d="M384.6,378.9v10h1.8v-10H384.6z"/>
		<path d="M386.4,912.1v-10h-1.8v10H386.4z"/>
	</g>
	<path class="st2" d="M581.9,447.3c0,75.4-61.1,136.6-136.6,136.6s-136.6-61.1-136.6-136.6s61.1-136.6,136.6-136.6
		S581.9,371.9,581.9,447.3z"/>
	<g transform="translate(87.955 -267.32)">
		<path class="st3" d="M128.2,809.5l458.3-189.9"/>
		<path class="st3" d="M262.4,943.8l189.9-458.3"/>
		<path class="st3" d="M452.3,943.8L262.4,485.5"/>
		<path class="st3" d="M586.5,809.5L128.2,619.7"/>
	</g>
	<path class="st4" d="M444.9,262.9l-9.9,164.6l-81.2-71.3l71.5,80.7l-164.3,9.9l164.4,10.7l-71.6,80.8l81.2-71.3l9.9,164.6
		l10.7-164.5l80.7,71.5L465,457.6l164.8-10.8l-164.6-9.9l71.2-81.1l-80.7,71.5L444.9,262.9L444.9,262.9z"/>
	<path class="st4" d="M444.9,262.9l-9.9,164.6l-81.2-71.3l71.5,80.7l-164.3,9.9l164.4,10.7l-71.6,80.8l81.2-71.3l9.9,164.6
		l10.7-164.5l80.7,71.5L465,457.6l164.8-10.8l-164.6-9.9l71.2-81.1l-80.7,71.5L444.9,262.9L444.9,262.9z"/>
	<g transform="matrix(0 1 -1 0 680.62 54.003)">
		<path d="M385.7,71.2c0,1.4,0.4,2.3,1.2,2.6c0.8,0.3,3,0.5,6.5,0.5h2c5.2,0,9-0.6,11.2-1.8c2.2-1.3,4.3-3.9,6.1-7.8h2.1L411.4,77
			h-39.6v-1.4c2.7-0.2,4.4-0.7,5.2-1.5c0.8-0.8,1.2-2.5,1.2-5.1V36.5c0-2.6-0.4-4.3-1.2-5.1c-0.8-0.8-2.5-1.3-5.2-1.5v-1.4h38.9
			L411,39h-1.8c-0.6-3.3-1.6-5.4-2.9-6.3c-1.3-0.9-4.1-1.4-8.2-1.4h-9.9c-1,0-1.6,0.2-2,0.5c-0.3,0.3-0.4,1-0.4,2v16.3H397
			c3.1,0,5.1-0.5,6-1.4c0.9-1,1.6-2.8,2.1-5.6h1.7v17h-1.7c-0.5-3-1.2-5-2.1-5.8c-0.9-0.8-2.9-1.2-5.9-1.2h-11.3L385.7,71.2"/>
	</g>
	<g transform="matrix(0 -1 1 0 240.15 811.64)">
		<path d="M398.3-0.6v1.4c-2,0.4-3.3,0.9-4,1.5c-0.7,0.6-1.4,1.8-2.1,3.7c-4.1,10.9-6.8,18.4-8.2,22.4s-3.7,10.8-6.7,20.3h-1.1
			l-11.7-31l-11.3,31h-1.1L337.9,9.4c-1.2-3.4-2.3-5.6-3.3-6.7c-0.9-1.1-2.3-1.7-4.3-1.9v-1.4h18v1.4c-1.9,0.1-3.1,0.3-3.8,0.7
			c-0.6,0.3-1,0.9-1,1.7c0,0.9,0.3,2,0.8,3.4l10.6,27.6l7.8-20.7l-2.4-6c-1.2-2.9-2.2-4.7-3-5.4c-0.8-0.7-2.3-1.1-4.4-1.2v-1.4h19.6
			v1.4c-3.8,0-5.6,0.9-5.6,2.6c0,0.5,0.7,2.5,2,5.9l9.7,25l9.2-24.9c0.8-2.2,1.2-4,1.2-5.5c0-1-0.4-1.7-1.2-2.1
			c-0.7-0.5-2-0.8-3.9-1v-1.4L398.3-0.6"/>
	</g>
	<g transform="translate(58.896 193.38)">
		<path class="st5" d="M408.7,49.8c-1.4,0.1-2.4,0.3-3.1,0.5c-0.6,0.1-1.3,0.5-2.1,1.1c-0.7,0.6-1.2,1.5-1.5,2.8
			c-0.2,1.2-0.4,2.9-0.4,5v38.6h-1.2l-32.4-40.3v28.7c0,3.7,0.4,6.2,1.3,7.4c0.9,1.2,2.7,1.8,5.6,2V97h-17.2v-1.4c3-0.2,5-0.9,5.8-2
			c0.9-1.2,1.3-3.6,1.3-7.4V53.9c-1.5-1.7-2.6-2.8-3.5-3.3c-0.8-0.5-2-0.7-3.6-0.7v-1.4h12.5l28.2,35.5V59.2c0-3.7-0.5-6.1-1.4-7.3
			c-0.9-1.2-2.8-1.9-5.6-2.1v-1.4h17.2L408.7,49.8"/>
	</g>
	<g transform="matrix(-1 0 0 -1 855.82 633.84)">
		<path d="M422.8,18.1c0-2.3-0.8-4.3-2.4-6.1c-1.6-1.8-3.6-3.3-5.9-4.6c-2.3-1.3-4.6-2.6-6.9-3.9c-2.2-1.4-4.2-3.1-5.8-5.2
			s-2.4-4.5-2.4-7.3c0-3.7,1.2-6.7,3.7-9c2.5-2.3,5.5-3.5,8.9-3.5c2.1,0,4.3,0.4,6.7,1.2s3.8,1.2,4.3,1.2c1.3,0,2.1-0.8,2.3-2.5h1.5
			L428.5-6h-1.8c-1.2-4.3-3-7.5-5.4-9.5c-2.4-2.1-5.1-3.1-8-3.1c-2.2,0-4.1,0.6-5.5,1.9s-2.1,2.9-2.1,4.9c0,2,0.8,3.8,2.5,5.6
			c1.7,1.8,4.4,3.7,8.3,5.9c4.8,2.6,8.3,5.2,10.5,7.7c2.2,2.5,3.2,5.3,3.2,8.3c0,3.8-1.4,6.9-4.3,9.5c-2.9,2.5-6.4,3.8-10.6,3.8
			c-2.4,0-4.9-0.4-7.5-1.2c-2.5-0.8-4-1.2-4.6-1.2c-0.5,0-1,0.2-1.4,0.7c-0.4,0.4-0.6,1-0.7,1.7h-1.6l-2.2-15.5h1.7
			c1.8,4.4,3.9,7.7,6.3,9.8c2.4,2.1,5.2,3.2,8.5,3.2c2.7,0,4.9-0.8,6.5-2.3C421.9,22.5,422.8,20.5,422.8,18.1"/>
	</g>
	<g transform="matrix(.70711 .70711 -.70711 .70711 307.79 2.7983)">
		<path d="M414.6,54.3c-0.7,0.1-1.2,0.2-1.6,0.3c-0.3,0.1-0.7,0.3-1,0.6c-0.3,0.3-0.6,0.8-0.7,1.4c-0.1,0.6-0.2,1.5-0.2,2.5v19.6
			h-0.6l-16.5-20.5v14.6c0,1.9,0.2,3.1,0.7,3.8c0.4,0.6,1.4,0.9,2.8,1v0.7h-8.8v-0.7c1.5-0.1,2.5-0.4,2.9-1c0.4-0.6,0.7-1.9,0.7-3.8
			V56.4c-0.7-0.9-1.3-1.4-1.8-1.7c-0.4-0.2-1-0.4-1.8-0.4v-0.7h6.4l14.4,18.1V59.1c0-1.9-0.2-3.1-0.7-3.7c-0.4-0.6-1.4-1-2.9-1.1
			v-0.7h8.8L414.6,54.3"/>
		<path d="M422.6,75.3c0,0.7,0.2,1.2,0.6,1.3c0.4,0.2,1.5,0.3,3.3,0.3h1c2.7,0,4.6-0.3,5.7-0.9c1.1-0.6,2.2-2,3.1-4h1l-1.7,6.3
			h-20.2v-0.7c1.4-0.1,2.3-0.3,2.7-0.7c0.4-0.4,0.6-1.3,0.6-2.6V57.7c0-1.3-0.2-2.2-0.6-2.6c-0.4-0.4-1.3-0.7-2.7-0.8v-0.7h19.8
			l0.1,5.3h-0.9c-0.3-1.7-0.8-2.7-1.5-3.2c-0.7-0.5-2.1-0.7-4.2-0.7h-5c-0.5,0-0.8,0.1-1,0.3c-0.1,0.1-0.2,0.5-0.2,1v8.3h5.7
			c1.6,0,2.6-0.2,3.1-0.7c0.5-0.5,0.8-1.4,1-2.8h0.9v8.7h-0.9c-0.2-1.5-0.6-2.5-1.1-2.9c-0.5-0.4-1.5-0.6-3-0.6h-5.7V75.3"/>
	</g>
	<g transform="matrix(-.70711 -.70711 .70711 -.70711 613.59 824.02)">
		<path d="M372.1,4.2c0-1.2-0.4-2.2-1.2-3.1c-0.8-0.9-1.8-1.7-3-2.4s-2.3-1.3-3.5-2c-1.1-0.7-2.1-1.6-2.9-2.7s-1.2-2.3-1.2-3.7
			c0-1.9,0.6-3.4,1.9-4.6c1.3-1.2,2.8-1.8,4.6-1.8c1,0,2.2,0.2,3.4,0.6c1.2,0.4,2,0.6,2.2,0.6c0.6,0,1-0.4,1.2-1.3h0.8l0.8,8h-0.9
			c-0.6-2.2-1.5-3.8-2.8-4.9c-1.2-1-2.6-1.6-4.1-1.6c-1.1,0-2.1,0.3-2.8,1c-0.7,0.6-1.1,1.5-1.1,2.5c0,1,0.4,1.9,1.3,2.8
			c0.8,0.9,2.3,1.9,4.2,3c2.5,1.3,4.2,2.6,5.3,3.9c1.1,1.3,1.6,2.7,1.6,4.2c0,1.9-0.7,3.5-2.2,4.9c-1.5,1.3-3.3,1.9-5.4,1.9
			c-1.2,0-2.5-0.2-3.8-0.6c-1.3-0.4-2.1-0.6-2.4-0.6c-0.3,0-0.5,0.1-0.7,0.4c-0.2,0.2-0.3,0.5-0.3,0.9h-0.8l-1.1-7.9h0.9
			c0.9,2.3,2,3.9,3.2,5c1.2,1.1,2.7,1.6,4.3,1.6c1.4,0,2.5-0.4,3.3-1.2C371.7,6.4,372.1,5.4,372.1,4.2"/>
		<path d="M411.6-15.5v0.7c-1,0.2-1.7,0.4-2.1,0.7c-0.3,0.3-0.7,0.9-1,1.9c-2.1,5.6-3.5,9.4-4.2,11.4s-1.9,5.5-3.4,10.3h-0.6
			l-6-15.8l-5.7,15.8h-0.6l-7.2-20c-0.6-1.7-1.2-2.9-1.7-3.4c-0.5-0.5-1.2-0.9-2.2-1v-0.7h9.1v0.7c-0.9,0-1.6,0.2-1.9,0.3
			c-0.3,0.1-0.5,0.4-0.5,0.9c0,0.4,0.1,1,0.4,1.7l5.4,14l4-10.5l-1.2-3.1c-0.6-1.5-1.1-2.4-1.5-2.8c-0.4-0.4-1.2-0.6-2.2-0.6v-0.7
			h10v0.7c-1.9,0-2.9,0.5-2.9,1.3c0,0.3,0.3,1.3,1,3l4.9,12.7l4.7-12.7c0.4-1.1,0.6-2.1,0.6-2.8c0-0.5-0.2-0.9-0.6-1.1
			c-0.4-0.2-1-0.4-2-0.5v-0.7L411.6-15.5"/>
	</g>
	<g transform="matrix(-.70711 .70711 -.70711 -.70711 870.83 261.01)">
		<path d="M427.2,24.6c0-1.2-0.4-2.2-1.2-3.1c-0.8-0.9-1.8-1.7-3-2.4c-1.2-0.6-2.3-1.3-3.5-2c-1.1-0.7-2.1-1.6-2.9-2.7
			c-0.8-1.1-1.2-2.3-1.2-3.7c0-1.9,0.6-3.4,1.9-4.6c1.3-1.2,2.8-1.8,4.6-1.8c1,0,2.2,0.2,3.4,0.6c1.2,0.4,2,0.6,2.2,0.6
			c0.6,0,1-0.4,1.2-1.3h0.8l0.8,8h-0.9c-0.6-2.2-1.5-3.8-2.8-4.9c-1.2-1-2.6-1.6-4.1-1.6c-1.1,0-2.1,0.3-2.8,1
			c-0.7,0.6-1.1,1.5-1.1,2.5c0,1,0.4,1.9,1.3,2.8c0.8,0.9,2.3,1.9,4.2,3c2.5,1.3,4.2,2.6,5.3,3.9c1.1,1.3,1.6,2.7,1.6,4.2
			c0,1.9-0.7,3.5-2.2,4.9c-1.5,1.3-3.3,1.9-5.4,1.9c-1.2,0-2.5-0.2-3.8-0.6c-1.3-0.4-2.1-0.6-2.4-0.6c-0.3,0-0.5,0.1-0.7,0.4
			c-0.2,0.2-0.3,0.5-0.3,0.9h-0.8l-1.1-7.9h0.9c0.9,2.3,2,3.9,3.2,5c1.2,1.1,2.7,1.6,4.3,1.6c1.4,0,2.5-0.4,3.3-1.2
			C426.8,26.9,427.2,25.8,427.2,24.6"/>
		<path d="M439.4,26.6c0,0.7,0.2,1.2,0.6,1.3c0.4,0.2,1.5,0.3,3.3,0.3h1c2.7,0,4.6-0.3,5.7-0.9c1.1-0.6,2.2-2,3.1-4h1l-1.7,6.3
			h-20.2v-0.7c1.4-0.1,2.3-0.3,2.7-0.7c0.4-0.4,0.6-1.3,0.6-2.6V9c0-1.3-0.2-2.2-0.6-2.6c-0.4-0.4-1.3-0.7-2.7-0.8V4.9h19.8l0.1,5.3
			h-0.9c-0.3-1.7-0.8-2.7-1.5-3.2s-2.1-0.7-4.2-0.7h-5c-0.5,0-0.8,0.1-1,0.3c-0.1,0.1-0.2,0.5-0.2,1v8.3h5.7c1.6,0,2.6-0.2,3.1-0.7
			c0.5-0.5,0.8-1.4,1-2.8h0.9V21h-0.9c-0.2-1.5-0.6-2.5-1.1-2.9c-0.5-0.4-1.5-0.6-3-0.6h-5.7V26.6"/>
	</g>
	<g transform="matrix(.70711 -.70711 .70711 .70711 49.604 566.82)">
		<path d="M359.4,33.9c-0.7,0.1-1.2,0.2-1.6,0.3c-0.3,0.1-0.7,0.3-1,0.6c-0.3,0.3-0.6,0.8-0.7,1.4c-0.1,0.6-0.2,1.5-0.2,2.5v19.6
			h-0.6l-16.5-20.5v14.6c0,1.9,0.2,3.1,0.7,3.8c0.4,0.6,1.4,0.9,2.8,1v0.7h-8.8v-0.7c1.5-0.1,2.5-0.4,2.9-1c0.4-0.6,0.7-1.9,0.7-3.8
			V36c-0.7-0.9-1.3-1.4-1.8-1.7c-0.4-0.2-1-0.4-1.8-0.4v-0.7h6.4l14.4,18.1V38.7c0-1.9-0.2-3.1-0.7-3.7c-0.4-0.6-1.4-1-2.9-1.1v-0.7
			h8.8L359.4,33.9"/>
		<path d="M394.8,33.2v0.7c-1,0.2-1.7,0.4-2.1,0.7c-0.3,0.3-0.7,0.9-1,1.9c-2.1,5.6-3.5,9.4-4.2,11.4s-1.9,5.5-3.4,10.3h-0.6
			l-6-15.8l-5.7,15.8h-0.6l-7.2-20c-0.6-1.7-1.2-2.9-1.7-3.4c-0.5-0.5-1.2-0.9-2.2-1v-0.7h9.1v0.7c-0.9,0-1.6,0.2-1.9,0.3
			c-0.3,0.1-0.5,0.4-0.5,0.9c0,0.4,0.1,1,0.4,1.7l5.4,14l4-10.5l-1.2-3.1c-0.6-1.5-1.1-2.4-1.5-2.8c-0.4-0.4-1.2-0.6-2.2-0.6v-0.7
			h10v0.7c-1.9,0-2.9,0.5-2.9,1.3c0,0.3,0.3,1.3,1,3l4.9,12.7l4.7-12.7c0.4-1.1,0.6-2.1,0.6-2.8c0-0.5-0.2-0.9-0.6-1.1
			c-0.4-0.2-1-0.4-2-0.5v-0.7L394.8,33.2"/>
	</g>
	<path class="st6" d="M531,212.4L447.8,420c-9.6,2.2-17.7,9.3-21,19.3l9.3,3c0,0,0,0,0,0l-9.2-3c-3.3,10-0.8,20.6,5.6,28
		l-54.7,216.9L461,476.7c2.4-0.6,4.7-1.4,6.9-2.5c3.3-1.7,6.2-4,8.7-6.8c0.4-0.5,0.8-1,1.2-1.5c1.5-2,2.8-4.2,3.7-6.7
		c0.2-0.6,0.5-1.2,0.7-1.8l-9.3-3c0,0,0,0,0,0l9.2,3c1.4-4.4,1.8-8.9,1.1-13.2c0,0,0,0,0,0c-0.7-4.9-2.7-9.5-5.7-13.4
		c-0.4-0.5-0.8-1-1.2-1.4L531,212.4L531,212.4z"/>
	<g transform="matrix(.95106 .30902 -.30902 .95106 221.35 -57.164)">
		<path class="st7" d="M368.5,160.7l-15,223.1c-8.4,5.1-14,14.3-14,24.9h58.1c0-10.6-5.7-19.8-14.1-24.9L368.5,160.7L368.5,160.7z"
			/>
		<path class="st8" d="M368.6,656.8l-15-223.1c-8.4-5.1-14-14.3-14-24.9h58.1c0,10.6-5.7,19.8-14.1,24.9L368.6,656.8L368.6,656.8z"
			/>
		
			<linearGradient id="SVGID_1_" gradientUnits="userSpaceOnUse" x1="451.898" y1="221.9819" x2="436.0169" y2="401.6075" gradientTransform="matrix(0.8173 -0.2656 -0.2656 -0.8173 72.0568 702.0255)">
			<stop  offset="0" style="stop-color:#8E5151"/>
			<stop  offset="1" style="stop-color:#A40000;stop-opacity:0"/>
		</linearGradient>
		<path class="st9" d="M368.6,162v246.8h29c0-10.6-5.7-19.8-14.1-24.9L368.6,162L368.6,162z"/>
		
			<linearGradient id="SVGID_2_" gradientUnits="userSpaceOnUse" x1="449.7773" y1="212.6597" x2="435.2163" y2="10.8591" gradientTransform="matrix(0.8173 -0.2656 -0.2656 -0.8173 72.0568 702.0255)">
			<stop  offset="0" style="stop-color:#4C5966"/>
			<stop  offset="1" style="stop-color:#204A87;stop-opacity:0"/>
		</linearGradient>
		<path class="st10" d="M368.6,408.8v248l15-223.1c8.5-5.1,14.1-14.3,14.1-24.9L368.6,408.8L368.6,408.8z"/>
		
			<linearGradient id="SVGID_3_" gradientUnits="userSpaceOnUse" x1="440.5171" y1="238.7087" x2="440.5171" y2="422.054" gradientTransform="matrix(0.8173 -0.2656 -0.2656 -0.8173 72.0568 702.0255)">
			<stop  offset="0" style="stop-color:#F2F2F2"/>
			<stop  offset="1" style="stop-color:#F2F2F2;stop-opacity:0"/>
		</linearGradient>
		<path class="st11" d="M368.5,160.9l0.5,228.4"/>
		
			<linearGradient id="SVGID_4_" gradientUnits="userSpaceOnUse" x1="426.8998" y1="196.799" x2="426.8998" y2="15.9072" gradientTransform="matrix(0.8173 -0.2656 -0.2656 -0.8173 72.0568 702.0255)">
			<stop  offset="0" style="stop-color:#F2F2F2"/>
			<stop  offset="1" style="stop-color:#F2F2F2;stop-opacity:0"/>
		</linearGradient>
		<path class="st12" d="M368.5,653.8l0.5-225.3"/>
		
			<linearGradient id="SVGID_5_" gradientUnits="userSpaceOnUse" x1="424.9779" y1="235.7236" x2="455.78" y2="203.8015" gradientTransform="matrix(0.8173 -0.2656 -0.2656 -0.8173 72.0568 702.0255)">
			<stop  offset="0" style="stop-color:#EEEEEC"/>
			<stop  offset="1" style="stop-color:#D3D7CF;stop-opacity:0"/>
		</linearGradient>
		<path class="st13" d="M368.6,389.4c-10.7,0-19.3,8.7-19.3,19.3c0,10.7,8.7,19.3,19.3,19.3c10.7,0,19.3-8.7,19.3-19.3
			C388,398.1,379.3,389.4,368.6,389.4z M368.6,392.3c9.1,0,16.5,7.4,16.5,16.5c0,9.1-7.4,16.5-16.5,16.5c-9.1,0-16.5-7.4-16.5-16.5
			S359.5,392.3,368.6,392.3z"/>
		
			<linearGradient id="SVGID_6_" gradientUnits="userSpaceOnUse" x1="345.3684" y1="338.8769" x2="374.6237" y2="291.007" gradientTransform="matrix(0.6813 -0.1368 -0.2214 -0.4211 191.9435 582.1476)">
			<stop  offset="0" style="stop-color:#888A85"/>
			<stop  offset="1" style="stop-color:#D3D7CF"/>
		</linearGradient>
		<path class="st14" d="M385.1,408.8c0,9.1-7.4,16.5-16.5,16.5c-9.1,0-16.5-7.4-16.5-16.5c0-9.1,7.4-16.5,16.5-16.5
			C377.7,392.2,385.1,399.6,385.1,408.8z"/>
		
			<linearGradient id="SVGID_7_" gradientUnits="userSpaceOnUse" x1="473.7447" y1="243.0658" x2="477.1037" y2="243.0658" gradientTransform="matrix(0.5465 -0.6632 -0.6632 -0.5465 269.4078 856.7303)">
			<stop  offset="0" style="stop-color:#888A85"/>
			<stop  offset="1" style="stop-color:#BABDB6"/>
		</linearGradient>
		<path class="st15" d="M361.6,397.7c0.4-0.3,1-0.2,1.3,0.3l7.1,9.9l6,10.6c0.3,0.4,0.2,1-0.3,1.3c-0.4,0.3-1,0.2-1.3-0.3l-7.2-9.8
			l-5.8-10.7C361,398.6,361.1,398,361.6,397.7z"/>
		
			<linearGradient id="SVGID_8_" gradientUnits="userSpaceOnUse" x1="421.2744" y1="221.9489" x2="443.6364" y2="221.9489" gradientTransform="matrix(0.8173 -0.2656 -0.2656 -0.8173 72.0568 702.0255)">
			<stop  offset="0" style="stop-color:#888A85"/>
			<stop  offset="1" style="stop-color:#D3D7CF"/>
		</linearGradient>
		<path class="st16" d="M379.6,401.7c0.3,0.4,0.2,1-0.3,1.3l-10,6.9l-10.5,6.1c-0.4,0.3-1,0.2-1.3-0.3c-0.3-0.4-0.2-1,0.3-1.3
			l9.9-7.1l10.6-5.9C378.8,401.1,379.4,401.3,379.6,401.7z"/>
	</g>
</g>
</svg>
